<?xml version="1.0" standalone="no"?><!DOCTYPE svg PUBLIC "-//W3C//DTD SVG 1.1//EN" "http://www.w3.org/Graphics/SVG/1.1/DTD/svg11.dtd"><svg xmlns="http://www.w3.org/2000/svg" version="1.1" width="138px" height="80px" viewBox="0 -7 138 80" style="top:-7px">  <desc>Exceptional customer experiences</desc>  <defs/>  <g id="Polygon27219">    <path d="M 19.9 57.9 C 19.9 54.7 21.7 52.5 24.7 52.5 C 27.7 52.5 29.5 54.5 29.5 57.9 C 29.5 58 29.5 58.1 29.4 58.1 C 29.4 58.1 21.7 58.1 21.7 58.1 C 21.8 60.8 22.9 62 24.8 62 C 26.4 62 27.3 61.1 27.6 59.7 C 27.6 59.6 27.6 59.5 27.7 59.5 C 27.7 59.5 29.2 59.5 29.2 59.5 C 29.3 59.5 29.4 59.6 29.3 59.6 C 29 61.7 27.5 63.2 24.8 63.2 C 21.6 63.2 19.9 61 19.9 57.9 Z M 27.5 56.8 C 27.5 55.1 26.5 53.7 24.7 53.7 C 23 53.7 22 54.9 21.8 56.8 C 21.8 56.8 27.5 56.8 27.5 56.8 Z M 29 62.8 C 29.01 62.82 32.3 57.5 32.3 57.5 C 32.3 57.5 29.28 52.88 29.3 52.9 C 29.2 52.8 29.3 52.7 29.4 52.7 C 29.4 52.7 31.1 52.7 31.1 52.7 C 31.2 52.7 31.3 52.7 31.3 52.8 C 31.3 52.8 33.6 56.6 33.6 56.6 C 33.6 56.6 35.9 52.8 35.9 52.8 C 35.9 52.7 36 52.7 36.1 52.7 C 36.1 52.7 37.6 52.7 37.6 52.7 C 37.7 52.7 37.8 52.8 37.7 52.9 C 37.7 52.88 34.7 57.6 34.7 57.6 C 34.7 57.6 38.04 62.82 38 62.8 C 38.1 62.9 38.1 63 37.9 63 C 37.9 63 36.2 63 36.2 63 C 36.1 63 36 63 36 62.9 C 36.02 62.9 33.4 58.7 33.4 58.7 C 33.4 58.7 30.86 62.9 30.9 62.9 C 30.8 63 30.8 63 30.7 63 C 30.7 63 29.1 63 29.1 63 C 29 63 28.9 62.9 29 62.8 Z M 38.7 66.3 C 38.73 66.25 38.8 58.5 38.8 58.5 C 38.8 58.5 38.73 52.85 38.7 52.9 C 38.7 52.8 38.8 52.7 38.9 52.7 C 38.9 52.7 40.4 52.7 40.4 52.7 C 40.5 52.7 40.6 52.8 40.6 52.9 C 40.6 52.9 40.5 54.4 40.5 54.4 C 41.2 53.2 42.3 52.5 43.8 52.5 C 46.6 52.5 48.1 54.8 48.1 57.8 C 48.1 60.8 46.5 63.2 43.8 63.2 C 42.3 63.2 41.2 62.6 40.6 61.4 C 40.6 61.4 40.6 66.3 40.6 66.3 C 40.6 66.3 40.5 66.4 40.5 66.4 C 40.5 66.4 38.9 66.4 38.9 66.4 C 38.8 66.4 38.7 66.3 38.7 66.3 Z M 46.2 58 C 46.2 55.5 45.3 53.8 43.3 53.8 C 41.6 53.8 40.5 55.1 40.5 57.8 C 40.5 60.4 41.5 61.9 43.3 61.9 C 45.3 61.9 46.2 60.3 46.2 58 Z M 48.8 57.9 C 48.8 54.7 50.7 52.5 53.7 52.5 C 56.7 52.5 58.4 54.5 58.5 57.9 C 58.5 58 58.4 58.1 58.3 58.1 C 58.3 58.1 50.7 58.1 50.7 58.1 C 50.7 60.8 51.9 62 53.8 62 C 55.3 62 56.2 61.1 56.5 59.7 C 56.5 59.6 56.6 59.5 56.7 59.5 C 56.7 59.5 58.1 59.5 58.1 59.5 C 58.2 59.5 58.3 59.6 58.3 59.6 C 58 61.7 56.4 63.2 53.8 63.2 C 50.5 63.2 48.8 61 48.8 57.9 Z M 56.5 56.8 C 56.4 55.1 55.5 53.7 53.7 53.7 C 52 53.7 51 54.9 50.7 56.8 C 50.7 56.8 56.5 56.8 56.5 56.8 Z M 59.4 62.9 C 59.37 62.85 59.4 57.7 59.4 57.7 C 59.4 57.7 59.37 52.85 59.4 52.9 C 59.4 52.8 59.4 52.7 59.5 52.7 C 59.5 52.7 61.1 52.7 61.1 52.7 C 61.1 52.7 61.2 52.8 61.2 52.9 C 61.2 52.9 61.1 54.6 61.1 54.6 C 61.9 53.3 63.2 52.6 64.6 52.6 C 64.9 52.6 65.1 52.6 65.3 52.7 C 65.4 52.7 65.4 52.8 65.4 52.8 C 65.4 52.8 65.4 53.9 65.4 53.9 C 65.4 54 65.3 54.1 65.2 54.1 C 65.1 54 64.9 54 64.7 54 C 62.9 54 61.4 55.1 61.2 57.4 C 61.2 57.4 61.2 62.9 61.2 62.9 C 61.2 63 61.2 63 61.1 63 C 61.1 63 59.5 63 59.5 63 C 59.4 63 59.4 63 59.4 62.9 Z M 66.2 51.4 C 66.2 51.4 66.2 49.8 66.2 49.8 C 66.2 49.7 66.3 49.6 66.4 49.6 C 66.4 49.6 67.9 49.6 67.9 49.6 C 68 49.6 68.1 49.7 68.1 49.8 C 68.1 49.8 68.1 51.4 68.1 51.4 C 68.1 51.5 68 51.6 67.9 51.6 C 67.9 51.6 66.4 51.6 66.4 51.6 C 66.3 51.6 66.2 51.5 66.2 51.4 Z M 66.2 62.9 C 66.2 62.85 66.2 57.7 66.2 57.7 C 66.2 57.7 66.2 52.85 66.2 52.9 C 66.2 52.8 66.2 52.7 66.3 52.7 C 66.3 52.7 67.9 52.7 67.9 52.7 C 68 52.7 68.1 52.8 68.1 52.9 C 68.06 52.85 68 57.7 68 57.7 C 68 57.7 68.06 62.85 68.1 62.9 C 68.1 63 68 63 67.9 63 C 67.9 63 66.3 63 66.3 63 C 66.2 63 66.2 63 66.2 62.9 Z M 69.1 57.9 C 69.1 54.7 70.9 52.5 73.9 52.5 C 76.9 52.5 78.6 54.5 78.7 57.9 C 78.7 58 78.6 58.1 78.5 58.1 C 78.5 58.1 70.9 58.1 70.9 58.1 C 71 60.8 72.1 62 74 62 C 75.5 62 76.4 61.1 76.7 59.7 C 76.8 59.6 76.8 59.5 76.9 59.5 C 76.9 59.5 78.4 59.5 78.4 59.5 C 78.5 59.5 78.5 59.6 78.5 59.6 C 78.2 61.7 76.6 63.2 74 63.2 C 70.8 63.2 69.1 61 69.1 57.9 Z M 76.7 56.8 C 76.7 55.1 75.7 53.7 73.9 53.7 C 72.2 53.7 71.2 54.9 71 56.8 C 71 56.8 76.7 56.8 76.7 56.8 Z M 79.6 62.9 C 79.61 62.85 79.7 58.3 79.7 58.3 C 79.7 58.3 79.63 52.85 79.6 52.9 C 79.6 52.8 79.7 52.7 79.8 52.7 C 79.8 52.7 81.3 52.7 81.3 52.7 C 81.4 52.7 81.4 52.8 81.4 52.9 C 81.4 52.9 81.4 54.5 81.4 54.5 C 82 53.4 83.2 52.5 84.8 52.5 C 86.9 52.5 88.2 53.9 88.2 56.6 C 88.25 56.56 88.2 58.6 88.2 58.6 C 88.2 58.6 88.29 62.85 88.3 62.9 C 88.3 63 88.2 63 88.1 63 C 88.1 63 86.6 63 86.6 63 C 86.5 63 86.4 63 86.4 62.9 C 86.43 62.85 86.5 58.6 86.5 58.6 C 86.5 58.6 86.46 56.63 86.5 56.6 C 86.5 54.7 85.6 53.9 84.3 53.9 C 82.9 53.9 81.8 54.9 81.5 57 C 81.46 56.95 81.5 58.6 81.5 58.6 C 81.5 58.6 81.49 62.85 81.5 62.9 C 81.5 63 81.4 63 81.3 63 C 81.3 63 79.7 63 79.7 63 C 79.7 63 79.6 63 79.6 62.9 Z M 89.1 57.9 C 89.1 54.6 90.8 52.5 94 52.5 C 96.5 52.5 98.1 53.9 98.3 56.1 C 98.3 56.2 98.3 56.2 98.2 56.2 C 98.2 56.2 96.8 56.2 96.8 56.2 C 96.7 56.2 96.6 56.2 96.6 56.1 C 96.4 54.5 95.3 53.8 94 53.8 C 91.9 53.8 91 55.3 91 57.9 C 91 60.5 91.9 62 94 62 C 95.5 62 96.6 61.1 96.7 59.3 C 96.7 59.2 96.8 59.2 96.9 59.2 C 96.9 59.2 98.3 59.2 98.3 59.2 C 98.4 59.2 98.5 59.2 98.4 59.3 C 98.2 61.6 96.6 63.2 93.9 63.2 C 90.8 63.2 89.1 61.1 89.1 57.9 Z M 99 57.9 C 99 54.7 100.8 52.5 103.8 52.5 C 106.8 52.5 108.5 54.5 108.6 57.9 C 108.6 58 108.5 58.1 108.4 58.1 C 108.4 58.1 100.8 58.1 100.8 58.1 C 100.8 60.8 102 62 103.9 62 C 105.4 62 106.3 61.1 106.6 59.7 C 106.7 59.6 106.7 59.5 106.8 59.5 C 106.8 59.5 108.3 59.5 108.3 59.5 C 108.4 59.5 108.4 59.6 108.4 59.6 C 108.1 61.7 106.5 63.2 103.9 63.2 C 100.7 63.2 99 61 99 57.9 Z M 106.6 56.8 C 106.5 55.1 105.6 53.7 103.8 53.7 C 102.1 53.7 101.1 54.9 100.9 56.8 C 100.9 56.8 106.6 56.8 106.6 56.8 Z M 109.1 59.6 C 109.1 59.5 109.1 59.5 109.2 59.5 C 109.2 59.5 110.7 59.5 110.7 59.5 C 110.8 59.5 110.8 59.5 110.8 59.6 C 110.9 61.3 111.9 62 113.7 62 C 115.2 62 116.2 61.4 116.2 60.2 C 116.2 57.4 109.3 59.6 109.3 55.5 C 109.3 53.5 110.9 52.5 113.4 52.5 C 115.8 52.5 117.5 53.5 117.6 55.6 C 117.7 55.7 117.6 55.8 117.5 55.8 C 117.5 55.8 116.1 55.8 116.1 55.8 C 116 55.8 115.9 55.7 115.9 55.6 C 115.8 54.3 114.8 53.7 113.3 53.7 C 111.9 53.7 111 54.2 111 55.4 C 111 58 118 55.7 118 60.1 C 118 62.1 116.1 63.2 113.6 63.2 C 110.9 63.2 109.1 62 109.1 59.6 Z " stroke="none" fill="#010102"/>  </g>  <g id="Polygon27218">    <path d="M 30.8 33.9 C 30.8 30.6 32.5 28.5 35.6 28.5 C 38.2 28.5 39.7 29.9 40 32.1 C 40 32.2 39.9 32.2 39.8 32.2 C 39.8 32.2 38.4 32.2 38.4 32.2 C 38.3 32.2 38.3 32.2 38.3 32.1 C 38 30.5 36.9 29.8 35.6 29.8 C 33.6 29.8 32.6 31.3 32.6 33.9 C 32.6 36.5 33.6 38 35.6 38 C 37.1 38 38.2 37.1 38.4 35.3 C 38.4 35.2 38.4 35.2 38.5 35.2 C 38.5 35.2 40 35.2 40 35.2 C 40 35.2 40.1 35.2 40.1 35.3 C 39.9 37.6 38.2 39.2 35.6 39.2 C 32.5 39.2 30.8 37.1 30.8 33.9 Z M 40.9 35.1 C 40.86 35.14 40.9 33.1 40.9 33.1 C 40.9 33.1 40.83 28.85 40.8 28.9 C 40.8 28.8 40.9 28.7 41 28.7 C 41 28.7 42.5 28.7 42.5 28.7 C 42.6 28.7 42.7 28.8 42.7 28.9 C 42.69 28.85 42.7 33.1 42.7 33.1 C 42.7 33.1 42.65 35.07 42.7 35.1 C 42.7 37 43.5 37.9 44.8 37.9 C 46.2 37.9 47.3 36.8 47.7 34.8 C 47.66 34.75 47.7 33.1 47.7 33.1 C 47.7 33.1 47.63 28.85 47.6 28.9 C 47.6 28.8 47.7 28.7 47.8 28.7 C 47.8 28.7 49.4 28.7 49.4 28.7 C 49.5 28.7 49.5 28.8 49.5 28.9 C 49.51 28.85 49.5 33.4 49.5 33.4 C 49.5 33.4 49.49 38.85 49.5 38.9 C 49.5 39 49.4 39 49.3 39 C 49.3 39 47.9 39 47.9 39 C 47.8 39 47.7 39 47.7 38.9 C 47.7 38.9 47.8 37.2 47.8 37.2 C 47.1 38.3 46 39.2 44.3 39.2 C 42.2 39.2 40.9 37.9 40.9 35.1 Z M 50.4 35.6 C 50.4 35.5 50.5 35.5 50.6 35.5 C 50.6 35.5 52.1 35.5 52.1 35.5 C 52.1 35.5 52.2 35.5 52.2 35.6 C 52.3 37.3 53.2 38 55.1 38 C 56.6 38 57.6 37.4 57.6 36.2 C 57.6 33.4 50.7 35.6 50.7 31.5 C 50.7 29.5 52.3 28.5 54.7 28.5 C 57.1 28.5 58.9 29.5 59 31.6 C 59 31.7 59 31.8 58.9 31.8 C 58.9 31.8 57.5 31.8 57.5 31.8 C 57.4 31.8 57.3 31.7 57.3 31.6 C 57.2 30.3 56.2 29.7 54.7 29.7 C 53.3 29.7 52.4 30.2 52.4 31.4 C 52.4 34 59.4 31.7 59.4 36.1 C 59.4 38.1 57.5 39.2 55 39.2 C 52.2 39.2 50.5 38 50.4 35.6 Z M 60.8 36.2 C 60.83 36.18 60.8 30 60.8 30 C 60.8 30 59.66 30.04 59.7 30 C 59.6 30 59.5 30 59.5 29.9 C 59.5 29.9 59.5 28.9 59.5 28.9 C 59.5 28.8 59.6 28.7 59.7 28.7 C 59.66 28.7 60.8 28.7 60.8 28.7 C 60.8 28.7 60.82 26.27 60.8 26.3 C 60.8 26.2 60.9 26.1 61 26.1 C 61 26.1 62.5 26.1 62.5 26.1 C 62.6 26.1 62.7 26.2 62.7 26.3 C 62.67 26.27 62.7 28.7 62.7 28.7 C 62.7 28.7 65.05 28.7 65.1 28.7 C 65.1 28.7 65.2 28.8 65.2 28.9 C 65.2 28.9 65.2 29.9 65.2 29.9 C 65.2 30 65.1 30 65.1 30 C 65.05 30.04 62.6 30 62.6 30 C 62.6 30 62.65 36.14 62.7 36.1 C 62.7 37.4 63.1 37.8 63.9 37.8 C 64.3 37.8 64.7 37.8 65 37.7 C 65.1 37.6 65.2 37.7 65.2 37.8 C 65.2 37.8 65.2 38.8 65.2 38.8 C 65.2 38.9 65.2 38.9 65.1 38.9 C 64.7 39 64.1 39.2 63.6 39.2 C 62.1 39.2 60.8 38.4 60.8 36.2 Z M 65.1 33.9 C 65.1 30.6 66.9 28.5 70 28.5 C 73.1 28.5 74.9 30.6 74.9 33.8 C 74.9 37.1 73.1 39.2 70 39.2 C 66.9 39.2 65.1 37.1 65.1 33.9 Z M 73 33.9 C 73 31.3 72 29.7 70 29.7 C 68 29.8 67 31.3 67 33.9 C 67 36.5 68 38 70 38 C 72 38 73 36.5 73 33.9 Z M 75.8 38.9 C 75.82 38.85 75.9 34.9 75.9 34.9 C 75.9 34.9 75.84 28.85 75.8 28.9 C 75.8 28.8 75.9 28.7 76 28.7 C 76 28.7 77.5 28.7 77.5 28.7 C 77.6 28.7 77.6 28.8 77.6 28.9 C 77.6 28.9 77.6 30.5 77.6 30.5 C 78.2 29.4 79.2 28.5 80.8 28.5 C 82.2 28.5 83.3 29.2 83.7 30.7 C 84.5 29.3 85.5 28.5 87 28.5 C 89 28.5 90.2 29.7 90.2 32.6 C 90.19 32.56 90.2 34.9 90.2 34.9 C 90.2 34.9 90.23 38.85 90.2 38.9 C 90.2 39 90.2 39 90.1 39 C 90.1 39 88.5 39 88.5 39 C 88.4 39 88.4 39 88.4 38.9 C 88.36 38.85 88.4 34.9 88.4 34.9 C 88.4 34.9 88.4 32.63 88.4 32.6 C 88.4 30.6 87.6 29.9 86.4 29.9 C 85.3 29.9 84.3 30.9 84 32.8 C 84 32.9 84 33.1 84 33.3 C 83.98 33.28 84 34.9 84 34.9 C 84 34.9 84.02 38.85 84 38.9 C 84 39 84 39 83.9 39 C 83.9 39 82.3 39 82.3 39 C 82.2 39 82.2 39 82.2 38.9 C 82.15 38.85 82.2 34.9 82.2 34.9 C 82.2 34.9 82.19 32.63 82.2 32.6 C 82.2 30.6 81.4 29.9 80.2 29.9 C 79 29.9 78.1 31 77.7 33 C 77.67 32.95 77.7 34.9 77.7 34.9 C 77.7 34.9 77.71 38.85 77.7 38.9 C 77.7 39 77.7 39 77.6 39 C 77.6 39 76 39 76 39 C 75.9 39 75.8 39 75.8 38.9 Z M 91.1 33.9 C 91.1 30.7 92.9 28.5 95.9 28.5 C 98.9 28.5 100.6 30.5 100.7 33.9 C 100.7 34 100.6 34.1 100.5 34.1 C 100.5 34.1 92.9 34.1 92.9 34.1 C 92.9 36.8 94.1 38 96 38 C 97.5 38 98.4 37.1 98.7 35.7 C 98.8 35.6 98.8 35.5 98.9 35.5 C 98.9 35.5 100.4 35.5 100.4 35.5 C 100.5 35.5 100.5 35.6 100.5 35.6 C 100.2 37.7 98.6 39.2 96 39.2 C 92.8 39.2 91.1 37 91.1 33.9 Z M 98.7 32.8 C 98.6 31.1 97.7 29.7 95.9 29.7 C 94.2 29.7 93.2 30.9 93 32.8 C 93 32.8 98.7 32.8 98.7 32.8 Z M 101.6 38.9 C 101.58 38.85 101.6 33.7 101.6 33.7 C 101.6 33.7 101.58 28.85 101.6 28.9 C 101.6 28.8 101.6 28.7 101.7 28.7 C 101.7 28.7 103.3 28.7 103.3 28.7 C 103.4 28.7 103.4 28.8 103.4 28.9 C 103.4 28.9 103.4 30.6 103.4 30.6 C 104.1 29.3 105.4 28.6 106.9 28.6 C 107.1 28.6 107.3 28.6 107.5 28.7 C 107.6 28.7 107.6 28.8 107.6 28.8 C 107.6 28.8 107.6 29.9 107.6 29.9 C 107.6 30 107.6 30.1 107.5 30.1 C 107.3 30 107.1 30 106.9 30 C 105.1 30 103.6 31.1 103.4 33.4 C 103.4 33.4 103.4 38.9 103.4 38.9 C 103.4 39 103.4 39 103.3 39 C 103.3 39 101.7 39 101.7 39 C 101.6 39 101.6 39 101.6 38.9 Z " stroke="none" fill="#010102"/>  </g>  <g id="Polygon27217">    <path d="M 24 14.9 C 24.02 14.85 24.1 7.8 24.1 7.8 C 24.1 7.8 24.02 1.15 24 1.2 C 24 1.1 24.1 1 24.2 1 C 24.2 1 32.7 1 32.7 1 C 32.8 1 32.8 1.1 32.8 1.2 C 32.8 1.2 32.8 2.3 32.8 2.3 C 32.8 2.4 32.8 2.4 32.7 2.4 C 32.69 2.42 25.9 2.4 25.9 2.4 L 25.9 6.8 C 25.9 6.8 32.21 6.82 32.2 6.8 C 32.3 6.8 32.4 6.9 32.4 7 C 32.4 7 32.4 8.1 32.4 8.1 C 32.4 8.2 32.3 8.2 32.2 8.2 C 32.21 8.23 25.9 8.2 25.9 8.2 L 25.9 13.6 C 25.9 13.6 32.85 13.58 32.9 13.6 C 32.9 13.6 33 13.6 33 13.7 C 33 13.7 33 14.9 33 14.9 C 33 14.9 32.9 15 32.9 15 C 32.9 15 24.2 15 24.2 15 C 24.1 15 24 15 24 14.9 Z M 33.4 14.8 C 33.41 14.82 36.8 9.5 36.8 9.5 C 36.8 9.5 33.68 4.88 33.7 4.9 C 33.6 4.8 33.7 4.7 33.8 4.7 C 33.8 4.7 35.5 4.7 35.5 4.7 C 35.6 4.7 35.7 4.7 35.7 4.8 C 35.7 4.8 38 8.6 38 8.6 C 38 8.6 40.3 4.8 40.3 4.8 C 40.3 4.7 40.4 4.7 40.5 4.7 C 40.5 4.7 42 4.7 42 4.7 C 42.1 4.7 42.2 4.8 42.1 4.9 C 42.1 4.88 39.1 9.6 39.1 9.6 C 39.1 9.6 42.44 14.82 42.4 14.8 C 42.5 14.9 42.5 15 42.4 15 C 42.4 15 40.6 15 40.6 15 C 40.5 15 40.5 15 40.4 14.9 C 40.42 14.9 37.8 10.7 37.8 10.7 C 37.8 10.7 35.26 14.9 35.3 14.9 C 35.2 15 35.2 15 35.1 15 C 35.1 15 33.5 15 33.5 15 C 33.4 15 33.4 14.9 33.4 14.8 Z M 41.8 9.9 C 41.8 6.6 43.5 4.5 46.6 4.5 C 49.2 4.5 50.7 5.9 51 8.1 C 51 8.2 50.9 8.2 50.8 8.2 C 50.8 8.2 49.4 8.2 49.4 8.2 C 49.3 8.2 49.3 8.2 49.3 8.1 C 49 6.5 47.9 5.8 46.6 5.8 C 44.6 5.8 43.6 7.3 43.6 9.9 C 43.6 12.5 44.6 14 46.6 14 C 48.1 14 49.2 13.1 49.4 11.3 C 49.4 11.2 49.4 11.2 49.5 11.2 C 49.5 11.2 51 11.2 51 11.2 C 51 11.2 51.1 11.2 51.1 11.3 C 50.9 13.6 49.2 15.2 46.6 15.2 C 43.5 15.2 41.8 13.1 41.8 9.9 Z M 51.6 9.9 C 51.6 6.7 53.4 4.5 56.4 4.5 C 59.4 4.5 61.2 6.5 61.2 9.9 C 61.2 10 61.2 10.1 61.1 10.1 C 61.1 10.1 53.5 10.1 53.5 10.1 C 53.5 12.8 54.6 14 56.6 14 C 58.1 14 59 13.1 59.3 11.7 C 59.3 11.6 59.4 11.5 59.4 11.5 C 59.4 11.5 60.9 11.5 60.9 11.5 C 61 11.5 61.1 11.6 61.1 11.6 C 60.8 13.7 59.2 15.2 56.5 15.2 C 53.3 15.2 51.6 13 51.6 9.9 Z M 59.3 8.8 C 59.2 7.1 58.3 5.7 56.4 5.7 C 54.7 5.7 53.7 6.9 53.5 8.8 C 53.5 8.8 59.3 8.8 59.3 8.8 Z M 62.1 18.3 C 62.13 18.25 62.2 10.5 62.2 10.5 C 62.2 10.5 62.13 4.85 62.1 4.9 C 62.1 4.8 62.2 4.7 62.3 4.7 C 62.3 4.7 63.8 4.7 63.8 4.7 C 63.9 4.7 64 4.8 64 4.9 C 64 4.9 63.9 6.4 63.9 6.4 C 64.6 5.2 65.7 4.5 67.2 4.5 C 70 4.5 71.5 6.8 71.5 9.8 C 71.5 12.8 69.9 15.2 67.2 15.2 C 65.7 15.2 64.6 14.6 64 13.4 C 64 13.4 64 18.3 64 18.3 C 64 18.3 64 18.4 63.9 18.4 C 63.9 18.4 62.3 18.4 62.3 18.4 C 62.2 18.4 62.1 18.3 62.1 18.3 Z M 69.6 10 C 69.6 7.5 68.7 5.8 66.8 5.8 C 65 5.8 63.9 7.1 63.9 9.8 C 63.9 12.4 64.9 13.9 66.7 13.9 C 68.7 13.9 69.6 12.3 69.6 10 Z M 73 12.2 C 72.95 12.18 73 6 73 6 C 73 6 71.78 6.04 71.8 6 C 71.7 6 71.6 6 71.6 5.9 C 71.6 5.9 71.6 4.9 71.6 4.9 C 71.6 4.8 71.7 4.7 71.8 4.7 C 71.78 4.7 73 4.7 73 4.7 C 73 4.7 72.94 2.27 72.9 2.3 C 72.9 2.2 73 2.1 73.1 2.1 C 73.1 2.1 74.6 2.1 74.6 2.1 C 74.7 2.1 74.8 2.2 74.8 2.3 C 74.79 2.27 74.8 4.7 74.8 4.7 C 74.8 4.7 77.17 4.7 77.2 4.7 C 77.3 4.7 77.3 4.8 77.3 4.9 C 77.3 4.9 77.3 5.9 77.3 5.9 C 77.3 6 77.3 6 77.2 6 C 77.17 6.04 74.8 6 74.8 6 C 74.8 6 74.77 12.14 74.8 12.1 C 74.8 13.4 75.2 13.8 76.1 13.8 C 76.5 13.8 76.9 13.8 77.1 13.7 C 77.2 13.6 77.3 13.7 77.3 13.8 C 77.3 13.8 77.3 14.8 77.3 14.8 C 77.3 14.9 77.3 14.9 77.2 14.9 C 76.8 15 76.2 15.2 75.7 15.2 C 74.2 15.2 73 14.4 73 12.2 Z M 78.2 3.4 C 78.2 3.4 78.2 1.8 78.2 1.8 C 78.2 1.7 78.3 1.6 78.4 1.6 C 78.4 1.6 79.9 1.6 79.9 1.6 C 80 1.6 80.1 1.7 80.1 1.8 C 80.1 1.8 80.1 3.4 80.1 3.4 C 80.1 3.5 80 3.6 79.9 3.6 C 79.9 3.6 78.4 3.6 78.4 3.6 C 78.3 3.6 78.2 3.5 78.2 3.4 Z M 78.2 14.9 C 78.2 14.85 78.2 9.7 78.2 9.7 C 78.2 9.7 78.2 4.85 78.2 4.9 C 78.2 4.8 78.3 4.7 78.3 4.7 C 78.3 4.7 79.9 4.7 79.9 4.7 C 80 4.7 80.1 4.8 80.1 4.9 C 80.06 4.85 80 9.7 80 9.7 C 80 9.7 80.06 14.85 80.1 14.9 C 80.1 15 80 15 79.9 15 C 79.9 15 78.3 15 78.3 15 C 78.3 15 78.2 15 78.2 14.9 Z M 81.1 9.9 C 81.1 6.6 82.8 4.5 86 4.5 C 89.1 4.5 90.9 6.6 90.9 9.8 C 90.9 13.1 89.1 15.2 86 15.2 C 82.8 15.2 81.1 13.1 81.1 9.9 Z M 89 9.9 C 89 7.3 88 5.7 86 5.7 C 83.9 5.8 82.9 7.3 82.9 9.9 C 82.9 12.5 84 14 86 14 C 88 14 89 12.5 89 9.9 Z M 91.8 14.9 C 91.79 14.85 91.8 10.3 91.8 10.3 C 91.8 10.3 91.81 4.85 91.8 4.9 C 91.8 4.8 91.9 4.7 92 4.7 C 92 4.7 93.5 4.7 93.5 4.7 C 93.5 4.7 93.6 4.8 93.6 4.9 C 93.6 4.9 93.6 6.5 93.6 6.5 C 94.2 5.4 95.3 4.5 97 4.5 C 99.1 4.5 100.4 5.9 100.4 8.6 C 100.43 8.56 100.4 10.6 100.4 10.6 C 100.4 10.6 100.47 14.85 100.5 14.9 C 100.5 15 100.4 15 100.3 15 C 100.3 15 98.8 15 98.8 15 C 98.7 15 98.6 15 98.6 14.9 C 98.61 14.85 98.6 10.6 98.6 10.6 C 98.6 10.6 98.64 8.63 98.6 8.6 C 98.6 6.7 97.8 5.9 96.5 5.9 C 95.1 5.9 94 6.9 93.6 9 C 93.64 8.95 93.6 10.6 93.6 10.6 C 93.6 10.6 93.67 14.85 93.7 14.9 C 93.7 15 93.6 15 93.5 15 C 93.5 15 91.9 15 91.9 15 C 91.8 15 91.8 15 91.8 14.9 Z M 101.3 9.9 C 101.3 6.9 102.9 4.5 105.6 4.5 C 107.1 4.5 108.2 5.2 108.8 6.4 C 108.8 6.4 108.8 4.9 108.8 4.9 C 108.8 4.8 108.9 4.7 108.9 4.7 C 108.9 4.7 110.5 4.7 110.5 4.7 C 110.6 4.7 110.6 4.8 110.6 4.9 C 110.64 4.85 110.6 9.7 110.6 9.7 C 110.6 9.7 110.64 14.85 110.6 14.9 C 110.6 15 110.6 15 110.5 15 C 110.5 15 109 15 109 15 C 108.9 15 108.8 15 108.8 14.9 C 108.8 14.9 108.8 13.3 108.8 13.3 C 108.2 14.5 107.1 15.2 105.6 15.2 C 102.8 15.2 101.3 12.9 101.3 9.9 Z M 108.9 9.9 C 108.9 7.3 107.9 5.8 106.1 5.8 C 104.1 5.8 103.2 7.4 103.2 9.7 C 103.2 12.2 104.1 13.9 106 13.9 C 107.8 13.9 108.9 12.6 108.9 9.9 Z M 112 14.9 C 111.98 14.85 112 7.9 112 7.9 C 112 7.9 111.98 1.15 112 1.2 C 112 1.1 112 1 112.1 1 C 112.1 1 113.7 1 113.7 1 C 113.8 1 113.8 1.1 113.8 1.2 C 113.81 1.15 113.8 7.9 113.8 7.9 C 113.8 7.9 113.81 14.85 113.8 14.9 C 113.8 15 113.8 15 113.7 15 C 113.7 15 112.1 15 112.1 15 C 112 15 112 15 112 14.9 Z " stroke="none" fill="#010102"/>  </g></svg>