<?xml version="1.0" standalone="no"?><!DOCTYPE svg PUBLIC "-//W3C//DTD SVG 1.1//EN" "http://www.w3.org/Graphics/SVG/1.1/DTD/svg11.dtd"><svg xmlns="http://www.w3.org/2000/svg" version="1.1" width="1010px" height="88px" viewBox="0 -12 1010 88" style="top:-12px">  <desc>Sales &amp; Client Relationships Driving growth through customer‑centric relationships.</desc>  <defs/>  <g id="Polygon25730">    <path d="M 0.9 60.4 C 0.9 60.38 1 50.6 1 50.6 C 1 50.6 0.9 41.22 0.9 41.2 C 0.9 41.1 1 41 1.1 41 C 1.1 41 7.7 41 7.7 41 C 13.3 41 17.9 44.2 17.9 50.9 C 17.9 57.7 13.1 60.6 7.8 60.6 C 7.8 60.6 1.1 60.6 1.1 60.6 C 1 60.6 0.9 60.5 0.9 60.4 Z M 8 58 C 11.3 58 14.3 55.9 14.3 50.8 C 14.3 45.9 11.5 43.6 7.9 43.6 C 7.87 43.56 4.4 43.6 4.4 43.6 L 4.3 50.6 L 4.4 58 C 4.4 58 7.98 58.04 8 58 Z M 19 60.4 C 19.03 60.38 19.1 53.3 19.1 53.3 C 19.1 53.3 19.03 46.4 19 46.4 C 19 46.2 19.1 46.2 19.3 46.2 C 19.3 46.2 22.2 46.2 22.2 46.2 C 22.3 46.2 22.4 46.2 22.4 46.4 C 22.4 46.4 22.3 48.7 22.3 48.7 C 23.4 47 25.3 46.1 27.3 46.1 C 27.6 46.1 27.9 46.1 28.1 46.1 C 28.2 46.2 28.3 46.3 28.3 46.4 C 28.3 46.4 28.3 48.5 28.3 48.5 C 28.3 48.6 28.2 48.7 28.1 48.7 C 27.9 48.6 27.6 48.6 27.4 48.6 C 24.7 48.6 22.5 50.2 22.4 53.4 C 22.4 53.4 22.4 60.4 22.4 60.4 C 22.4 60.5 22.3 60.6 22.2 60.6 C 22.2 60.6 19.3 60.6 19.3 60.6 C 19.1 60.6 19 60.5 19 60.4 Z M 29.3 44.4 C 29.3 44.4 29.3 41.7 29.3 41.7 C 29.3 41.5 29.4 41.4 29.5 41.4 C 29.5 41.4 32.5 41.4 32.5 41.4 C 32.6 41.4 32.7 41.5 32.7 41.7 C 32.7 41.7 32.7 44.4 32.7 44.4 C 32.7 44.6 32.6 44.7 32.5 44.7 C 32.5 44.7 29.5 44.7 29.5 44.7 C 29.4 44.7 29.3 44.6 29.3 44.4 Z M 29.3 60.4 C 29.26 60.38 29.3 53.3 29.3 53.3 C 29.3 53.3 29.26 46.4 29.3 46.4 C 29.3 46.2 29.3 46.2 29.5 46.2 C 29.5 46.2 32.5 46.2 32.5 46.2 C 32.6 46.2 32.7 46.2 32.7 46.4 C 32.69 46.4 32.6 53.3 32.6 53.3 C 32.6 53.3 32.69 60.38 32.7 60.4 C 32.7 60.5 32.6 60.6 32.5 60.6 C 32.5 60.6 29.5 60.6 29.5 60.6 C 29.3 60.6 29.3 60.5 29.3 60.4 Z M 33.5 46.2 C 33.5 46.2 36.7 46.2 36.7 46.2 C 36.8 46.2 36.9 46.2 37 46.4 C 36.97 46.36 39.7 55 39.7 55 L 40.6 57.7 L 41.5 55 C 41.5 55 44.38 46.36 44.4 46.4 C 44.4 46.2 44.5 46.2 44.6 46.2 C 44.6 46.2 47.4 46.2 47.4 46.2 C 47.5 46.2 47.6 46.3 47.5 46.4 C 47.5 46.4 42.5 60.4 42.5 60.4 C 42.5 60.6 42.4 60.6 42.3 60.6 C 42.3 60.6 38.7 60.6 38.7 60.6 C 38.5 60.6 38.4 60.6 38.4 60.4 C 38.4 60.4 33.4 46.4 33.4 46.4 C 33.3 46.3 33.4 46.2 33.5 46.2 Z M 48.2 44.4 C 48.2 44.4 48.2 41.7 48.2 41.7 C 48.2 41.5 48.3 41.4 48.5 41.4 C 48.5 41.4 51.4 41.4 51.4 41.4 C 51.6 41.4 51.6 41.5 51.6 41.7 C 51.6 41.7 51.6 44.4 51.6 44.4 C 51.6 44.6 51.6 44.7 51.4 44.7 C 51.4 44.7 48.5 44.7 48.5 44.7 C 48.3 44.7 48.2 44.6 48.2 44.4 Z M 48.2 60.4 C 48.22 60.38 48.3 53.3 48.3 53.3 C 48.3 53.3 48.22 46.4 48.2 46.4 C 48.2 46.2 48.3 46.2 48.4 46.2 C 48.4 46.2 51.4 46.2 51.4 46.2 C 51.6 46.2 51.6 46.2 51.6 46.4 C 51.65 46.4 51.6 53.3 51.6 53.3 C 51.6 53.3 51.65 60.38 51.6 60.4 C 51.6 60.5 51.6 60.6 51.4 60.6 C 51.4 60.6 48.4 60.6 48.4 60.6 C 48.3 60.6 48.2 60.5 48.2 60.4 Z M 53.3 60.4 C 53.28 60.38 53.4 53.9 53.4 53.9 C 53.4 53.9 53.33 46.4 53.3 46.4 C 53.3 46.3 53.4 46.2 53.5 46.2 C 53.5 46.2 56.4 46.2 56.4 46.2 C 56.5 46.2 56.6 46.2 56.6 46.4 C 56.6 46.4 56.5 48.3 56.5 48.3 C 57.4 47 59.1 45.8 61.2 45.8 C 64.2 45.8 66.2 47.8 66.2 51.5 C 66.18 51.51 66.2 54.5 66.2 54.5 C 66.2 54.5 66.23 60.38 66.2 60.4 C 66.2 60.5 66.1 60.6 66 60.6 C 66 60.6 63 60.6 63 60.6 C 62.9 60.6 62.8 60.5 62.8 60.4 C 62.82 60.38 62.9 54.5 62.9 54.5 C 62.9 54.5 62.87 51.6 62.9 51.6 C 62.9 49.4 61.8 48.3 60.3 48.3 C 58.5 48.3 57 49.8 56.7 52.8 C 56.69 52.76 56.7 54.5 56.7 54.5 C 56.7 54.5 56.74 60.38 56.7 60.4 C 56.7 60.5 56.7 60.6 56.5 60.6 C 56.5 60.6 53.5 60.6 53.5 60.6 C 53.4 60.6 53.3 60.5 53.3 60.4 Z M 67.7 61.7 C 67.7 61.5 67.8 61.4 68 61.4 C 68 61.4 70.8 61.4 70.8 61.4 C 71 61.4 71.1 61.5 71.1 61.6 C 71.3 63.1 72.5 63.9 74.4 63.9 C 76.5 63.9 77.9 62.7 77.9 59.8 C 77.9 59.8 77.9 58.2 77.9 58.2 C 77 59.7 75.5 60.5 73.6 60.5 C 69.4 60.5 67.2 57.4 67.2 53.3 C 67.2 49.3 69.5 46 73.4 46 C 75.4 46 76.8 46.7 77.8 48.2 C 77.8 48.2 77.7 46.4 77.7 46.4 C 77.7 46.3 77.8 46.2 77.9 46.2 C 77.9 46.2 80.8 46.2 80.8 46.2 C 81 46.2 81.1 46.2 81.1 46.4 C 81.07 46.4 81 53.6 81 53.6 C 81 53.6 81.03 59.89 81 59.9 C 81 63.8 78.7 66.1 74.3 66.1 C 70.7 66.2 68 64.7 67.7 61.7 Z M 77.9 53.4 C 77.9 50.1 76.6 48.2 74.3 48.2 C 71.9 48.2 70.7 50.1 70.7 53.2 C 70.7 56.5 71.9 58.3 74.3 58.3 C 76.5 58.3 77.8 56.7 77.9 53.4 Z M 87.1 61.7 C 87.1 61.5 87.2 61.4 87.3 61.4 C 87.3 61.4 90.2 61.4 90.2 61.4 C 90.3 61.4 90.4 61.5 90.5 61.6 C 90.7 63.1 91.9 63.9 93.7 63.9 C 95.8 63.9 97.3 62.7 97.3 59.8 C 97.3 59.8 97.3 58.2 97.3 58.2 C 96.3 59.7 94.9 60.5 92.9 60.5 C 88.8 60.5 86.6 57.4 86.6 53.3 C 86.6 49.3 88.9 46 92.8 46 C 94.7 46 96.2 46.7 97.1 48.2 C 97.1 48.2 97.1 46.4 97.1 46.4 C 97.1 46.3 97.2 46.2 97.3 46.2 C 97.3 46.2 100.2 46.2 100.2 46.2 C 100.4 46.2 100.4 46.2 100.4 46.4 C 100.43 46.4 100.4 53.6 100.4 53.6 C 100.4 53.6 100.39 59.89 100.4 59.9 C 100.4 63.8 98.1 66.1 93.6 66.1 C 90.1 66.2 87.4 64.7 87.1 61.7 Z M 97.2 53.4 C 97.2 50.1 96 48.2 93.7 48.2 C 91.3 48.2 90 50.1 90 53.2 C 90 56.5 91.3 58.3 93.7 58.3 C 95.9 58.3 97.2 56.7 97.2 53.4 Z M 101.9 60.4 C 101.95 60.38 102 53.3 102 53.3 C 102 53.3 101.95 46.4 101.9 46.4 C 101.9 46.2 102 46.2 102.2 46.2 C 102.2 46.2 105.1 46.2 105.1 46.2 C 105.2 46.2 105.3 46.2 105.3 46.4 C 105.3 46.4 105.2 48.7 105.2 48.7 C 106.3 47 108.2 46.1 110.2 46.1 C 110.5 46.1 110.8 46.1 111 46.1 C 111.1 46.2 111.2 46.3 111.2 46.4 C 111.2 46.4 111.2 48.5 111.2 48.5 C 111.2 48.6 111.1 48.7 111 48.7 C 110.8 48.6 110.5 48.6 110.3 48.6 C 107.6 48.6 105.4 50.2 105.3 53.4 C 105.3 53.4 105.3 60.4 105.3 60.4 C 105.3 60.5 105.2 60.6 105.1 60.6 C 105.1 60.6 102.2 60.6 102.2 60.6 C 102 60.6 101.9 60.5 101.9 60.4 Z M 111.7 53.4 C 111.7 48.9 114.3 45.8 118.8 45.8 C 123.4 45.8 125.9 48.8 125.9 53.4 C 125.9 57.9 123.4 60.9 118.8 60.9 C 114.3 60.9 111.7 58 111.7 53.4 Z M 122.5 53.4 C 122.5 50 121.3 48.1 118.8 48.1 C 116.3 48.1 115.1 50 115.1 53.4 C 115.1 56.9 116.4 58.7 118.8 58.7 C 121.3 58.7 122.5 56.9 122.5 53.4 Z M 126.5 46.2 C 126.5 46.2 129.4 46.2 129.4 46.2 C 129.5 46.2 129.6 46.2 129.7 46.4 C 129.65 46.39 131.2 54.3 131.2 54.3 L 131.9 57.7 L 132.6 54.3 C 132.6 54.3 134.27 46.38 134.3 46.4 C 134.3 46.2 134.4 46.2 134.5 46.2 C 134.5 46.2 138.2 46.2 138.2 46.2 C 138.3 46.2 138.4 46.2 138.4 46.4 C 138.42 46.38 140.2 54.3 140.2 54.3 L 140.8 57.5 L 141.5 54.3 C 141.5 54.3 143.04 46.39 143 46.4 C 143.1 46.3 143.1 46.2 143.3 46.2 C 143.3 46.2 145.9 46.2 145.9 46.2 C 146.1 46.2 146.2 46.3 146.1 46.4 C 146.1 46.4 142.8 60.4 142.8 60.4 C 142.8 60.5 142.7 60.6 142.6 60.6 C 142.6 60.6 139 60.6 139 60.6 C 138.9 60.6 138.8 60.5 138.8 60.4 C 138.78 60.4 136.9 52.5 136.9 52.5 L 136.1 49.1 L 135.4 52.5 C 135.4 52.5 133.74 60.4 133.7 60.4 C 133.7 60.5 133.6 60.6 133.5 60.6 C 133.5 60.6 130 60.6 130 60.6 C 129.8 60.6 129.7 60.5 129.7 60.4 C 129.7 60.4 126.3 46.4 126.3 46.4 C 126.3 46.3 126.3 46.2 126.5 46.2 Z M 148.2 56.5 C 148.19 56.51 148.2 48.6 148.2 48.6 C 148.2 48.6 146.58 48.59 146.6 48.6 C 146.4 48.6 146.3 48.5 146.3 48.4 C 146.3 48.4 146.3 46.4 146.3 46.4 C 146.3 46.3 146.4 46.2 146.6 46.2 C 146.58 46.18 148.2 46.2 148.2 46.2 C 148.2 46.2 148.17 42.79 148.2 42.8 C 148.2 42.6 148.3 42.6 148.4 42.6 C 148.4 42.6 151.3 42.6 151.3 42.6 C 151.5 42.6 151.6 42.6 151.6 42.8 C 151.58 42.79 151.5 46.2 151.5 46.2 C 151.5 46.2 154.82 46.18 154.8 46.2 C 155 46.2 155 46.3 155 46.4 C 155 46.4 155 48.4 155 48.4 C 155 48.5 155 48.6 154.8 48.6 C 154.82 48.59 151.5 48.6 151.5 48.6 C 151.5 48.6 151.55 56.43 151.5 56.4 C 151.5 57.9 152.1 58.4 153.2 58.4 C 153.8 58.4 154.4 58.3 154.8 58.2 C 154.9 58.2 155 58.2 155 58.4 C 155 58.4 155 60.2 155 60.2 C 155 60.3 155 60.4 154.9 60.4 C 154.2 60.7 153.3 60.9 152.5 60.9 C 150.2 60.9 148.2 59.7 148.2 56.5 Z M 156.1 60.4 C 156.06 60.38 156.2 50.7 156.2 50.7 C 156.2 50.7 156.06 41.22 156.1 41.2 C 156.1 41.1 156.1 41 156.3 41 C 156.3 41 159.2 41 159.2 41 C 159.3 41 159.4 41.1 159.4 41.2 C 159.4 41.2 159.3 48.2 159.3 48.2 C 160.3 46.8 161.8 45.8 163.9 45.8 C 167 45.8 168.9 47.7 168.9 51.9 C 168.89 51.93 168.9 54.9 168.9 54.9 C 168.9 54.9 168.95 60.38 168.9 60.4 C 168.9 60.5 168.9 60.6 168.7 60.6 C 168.7 60.6 165.7 60.6 165.7 60.6 C 165.6 60.6 165.5 60.5 165.5 60.4 C 165.52 60.38 165.6 55 165.6 55 C 165.6 55 165.58 51.6 165.6 51.6 C 165.5 49.3 164.5 48.3 163 48.3 C 161.4 48.3 159.9 49.6 159.3 51.7 C 159.3 51.7 159.4 60.4 159.4 60.4 C 159.4 60.5 159.3 60.6 159.2 60.6 C 159.2 60.6 156.3 60.6 156.3 60.6 C 156.1 60.6 156.1 60.5 156.1 60.4 Z M 176 56.5 C 176.05 56.51 176.1 48.6 176.1 48.6 C 176.1 48.6 174.44 48.59 174.4 48.6 C 174.3 48.6 174.2 48.5 174.2 48.4 C 174.2 48.4 174.2 46.4 174.2 46.4 C 174.2 46.3 174.3 46.2 174.4 46.2 C 174.44 46.18 176.1 46.2 176.1 46.2 C 176.1 46.2 176.03 42.79 176 42.8 C 176 42.6 176.1 42.6 176.3 42.6 C 176.3 42.6 179.2 42.6 179.2 42.6 C 179.3 42.6 179.4 42.6 179.4 42.8 C 179.44 42.79 179.4 46.2 179.4 46.2 C 179.4 46.2 182.68 46.18 182.7 46.2 C 182.8 46.2 182.9 46.3 182.9 46.4 C 182.9 46.4 182.9 48.4 182.9 48.4 C 182.9 48.5 182.8 48.6 182.7 48.6 C 182.68 48.59 179.4 48.6 179.4 48.6 C 179.4 48.6 179.41 56.43 179.4 56.4 C 179.4 57.9 180 58.4 181.1 58.4 C 181.7 58.4 182.2 58.3 182.6 58.2 C 182.8 58.2 182.9 58.2 182.9 58.4 C 182.9 58.4 182.9 60.2 182.9 60.2 C 182.9 60.3 182.8 60.4 182.7 60.4 C 182 60.7 181.2 60.9 180.4 60.9 C 178.1 60.9 176 59.7 176 56.5 Z M 183.9 60.4 C 183.92 60.38 184 50.7 184 50.7 C 184 50.7 183.92 41.22 183.9 41.2 C 183.9 41.1 184 41 184.1 41 C 184.1 41 187 41 187 41 C 187.2 41 187.3 41.1 187.3 41.2 C 187.3 41.2 187.2 48.2 187.2 48.2 C 188.1 46.8 189.6 45.8 191.7 45.8 C 194.9 45.8 196.8 47.7 196.8 51.9 C 196.75 51.93 196.7 54.9 196.7 54.9 C 196.7 54.9 196.81 60.38 196.8 60.4 C 196.8 60.5 196.7 60.6 196.6 60.6 C 196.6 60.6 193.6 60.6 193.6 60.6 C 193.4 60.6 193.4 60.5 193.4 60.4 C 193.38 60.38 193.4 55 193.4 55 C 193.4 55 193.44 51.6 193.4 51.6 C 193.4 49.3 192.3 48.3 190.9 48.3 C 189.3 48.3 187.8 49.6 187.2 51.7 C 187.2 51.7 187.3 60.4 187.3 60.4 C 187.3 60.5 187.2 60.6 187 60.6 C 187 60.6 184.1 60.6 184.1 60.6 C 184 60.6 183.9 60.5 183.9 60.4 Z M 198.2 60.4 C 198.2 60.38 198.3 53.3 198.3 53.3 C 198.3 53.3 198.2 46.4 198.2 46.4 C 198.2 46.2 198.3 46.2 198.4 46.2 C 198.4 46.2 201.3 46.2 201.3 46.2 C 201.5 46.2 201.6 46.2 201.6 46.4 C 201.6 46.4 201.5 48.7 201.5 48.7 C 202.5 47 204.4 46.1 206.5 46.1 C 206.7 46.1 207 46.1 207.3 46.1 C 207.4 46.2 207.5 46.3 207.5 46.4 C 207.5 46.4 207.5 48.5 207.5 48.5 C 207.5 48.6 207.4 48.7 207.2 48.7 C 207 48.6 206.8 48.6 206.6 48.6 C 203.9 48.6 201.7 50.2 201.5 53.4 C 201.5 53.4 201.6 60.4 201.6 60.4 C 201.6 60.5 201.5 60.6 201.3 60.6 C 201.3 60.6 198.4 60.6 198.4 60.6 C 198.3 60.6 198.2 60.5 198.2 60.4 Z M 208 53.4 C 208 48.9 210.5 45.8 215.1 45.8 C 219.6 45.8 222.2 48.8 222.2 53.4 C 222.2 57.9 219.6 60.9 215.1 60.9 C 210.5 60.9 208 58 208 53.4 Z M 218.7 53.4 C 218.7 50 217.5 48.1 215.1 48.1 C 212.6 48.1 211.4 50 211.4 53.4 C 211.4 56.9 212.6 58.7 215.1 58.7 C 217.5 58.7 218.7 56.9 218.7 53.4 Z M 223.3 55.3 C 223.26 55.27 223.3 52.3 223.3 52.3 C 223.3 52.3 223.19 46.4 223.2 46.4 C 223.2 46.2 223.3 46.2 223.4 46.2 C 223.4 46.2 226.4 46.2 226.4 46.2 C 226.5 46.2 226.6 46.2 226.6 46.4 C 226.6 46.4 226.5 52.3 226.5 52.3 C 226.5 52.3 226.55 55.18 226.5 55.2 C 226.5 57.3 227.6 58.4 229.2 58.4 C 230.9 58.4 232.5 57 232.7 54 C 232.73 54.02 232.7 52.3 232.7 52.3 C 232.7 52.3 232.68 46.4 232.7 46.4 C 232.7 46.2 232.8 46.2 232.9 46.2 C 232.9 46.2 235.9 46.2 235.9 46.2 C 236.1 46.2 236.1 46.2 236.1 46.4 C 236.14 46.4 236.1 52.9 236.1 52.9 C 236.1 52.9 236.09 60.38 236.1 60.4 C 236.1 60.5 236 60.6 235.9 60.6 C 235.9 60.6 233.1 60.6 233.1 60.6 C 232.9 60.6 232.8 60.5 232.8 60.4 C 232.8 60.4 232.9 58.4 232.9 58.4 C 232 59.8 230.3 60.9 228.2 60.9 C 225.2 60.9 223.3 58.9 223.3 55.3 Z M 237.8 61.7 C 237.8 61.5 237.9 61.4 238 61.4 C 238 61.4 240.9 61.4 240.9 61.4 C 241 61.4 241.1 61.5 241.1 61.6 C 241.4 63.1 242.5 63.9 244.4 63.9 C 246.5 63.9 247.9 62.7 247.9 59.8 C 247.9 59.8 247.9 58.2 247.9 58.2 C 247 59.7 245.5 60.5 243.6 60.5 C 239.5 60.5 237.3 57.4 237.3 53.3 C 237.3 49.3 239.6 46 243.5 46 C 245.4 46 246.9 46.7 247.8 48.2 C 247.8 48.2 247.8 46.4 247.8 46.4 C 247.7 46.3 247.8 46.2 248 46.2 C 248 46.2 250.9 46.2 250.9 46.2 C 251 46.2 251.1 46.2 251.1 46.4 C 251.11 46.4 251 53.6 251 53.6 C 251 53.6 251.07 59.89 251.1 59.9 C 251.1 63.8 248.7 66.1 244.3 66.1 C 240.8 66.2 238.1 64.7 237.8 61.7 Z M 247.9 53.4 C 247.9 50.1 246.6 48.2 244.4 48.2 C 241.9 48.2 240.7 50.1 240.7 53.2 C 240.7 56.5 242 58.3 244.4 58.3 C 246.6 58.3 247.9 56.7 247.9 53.4 Z M 252.6 60.4 C 252.64 60.38 252.7 50.7 252.7 50.7 C 252.7 50.7 252.64 41.22 252.6 41.2 C 252.6 41.1 252.7 41 252.9 41 C 252.9 41 255.8 41 255.8 41 C 255.9 41 256 41.1 256 41.2 C 256 41.2 255.9 48.2 255.9 48.2 C 256.9 46.8 258.4 45.8 260.5 45.8 C 263.6 45.8 265.5 47.7 265.5 51.9 C 265.48 51.93 265.5 54.9 265.5 54.9 C 265.5 54.9 265.53 60.38 265.5 60.4 C 265.5 60.5 265.5 60.6 265.3 60.6 C 265.3 60.6 262.3 60.6 262.3 60.6 C 262.2 60.6 262.1 60.5 262.1 60.4 C 262.1 60.38 262.2 55 262.2 55 C 262.2 55 262.16 51.6 262.2 51.6 C 262.1 49.3 261 48.3 259.6 48.3 C 258 48.3 256.5 49.6 255.9 51.7 C 255.9 51.7 256 60.4 256 60.4 C 256 60.5 255.9 60.6 255.8 60.6 C 255.8 60.6 252.9 60.6 252.9 60.6 C 252.7 60.6 252.6 60.5 252.6 60.4 Z M 270.9 53.4 C 270.9 48.9 273.5 45.8 278.1 45.8 C 281.7 45.8 284 47.9 284.3 50.9 C 284.4 51.1 284.3 51.2 284.1 51.2 C 284.1 51.2 281.5 51.2 281.5 51.2 C 281.3 51.2 281.2 51.1 281.2 50.9 C 280.9 49 279.6 48.1 278.1 48.1 C 275.6 48.2 274.4 50 274.4 53.4 C 274.4 56.9 275.6 58.6 278.1 58.7 C 279.8 58.7 281.1 57.5 281.3 55.4 C 281.4 55.3 281.4 55.2 281.6 55.2 C 281.6 55.2 284.3 55.2 284.3 55.2 C 284.4 55.2 284.5 55.3 284.5 55.4 C 284.2 58.6 281.7 60.9 278 60.9 C 273.5 60.9 270.9 58 270.9 53.4 Z M 285.5 55.3 C 285.48 55.27 285.5 52.3 285.5 52.3 C 285.5 52.3 285.41 46.4 285.4 46.4 C 285.4 46.2 285.5 46.2 285.7 46.2 C 285.7 46.2 288.6 46.2 288.6 46.2 C 288.7 46.2 288.8 46.2 288.8 46.4 C 288.83 46.4 288.8 52.3 288.8 52.3 C 288.8 52.3 288.77 55.18 288.8 55.2 C 288.8 57.3 289.9 58.4 291.4 58.4 C 293.1 58.4 294.7 57 295 54 C 294.96 54.02 295 52.3 295 52.3 C 295 52.3 294.91 46.4 294.9 46.4 C 294.9 46.2 295 46.2 295.1 46.2 C 295.1 46.2 298.1 46.2 298.1 46.2 C 298.3 46.2 298.4 46.2 298.4 46.4 C 298.36 46.4 298.3 52.9 298.3 52.9 C 298.3 52.9 298.32 60.38 298.3 60.4 C 298.3 60.5 298.2 60.6 298.1 60.6 C 298.1 60.6 295.3 60.6 295.3 60.6 C 295.1 60.6 295.1 60.5 295.1 60.4 C 295.1 60.4 295.1 58.4 295.1 58.4 C 294.2 59.8 292.6 60.9 290.4 60.9 C 287.4 60.9 285.5 58.9 285.5 55.3 Z M 299.5 56 C 299.5 55.8 299.6 55.7 299.7 55.7 C 299.7 55.7 302.5 55.7 302.5 55.7 C 302.7 55.7 302.8 55.8 302.8 56 C 302.9 57.9 304.1 58.8 306.4 58.8 C 308.2 58.8 309.4 58 309.4 56.6 C 309.4 53.3 299.8 56.2 299.8 50.3 C 299.8 47.4 302.2 45.9 305.8 45.9 C 309.4 45.9 311.9 47.3 312.1 50.3 C 312.1 50.4 312 50.5 311.9 50.5 C 311.9 50.5 309.2 50.5 309.2 50.5 C 309.1 50.5 309 50.4 309 50.3 C 308.8 48.8 307.7 47.9 305.8 47.9 C 304.1 47.9 303 48.6 303 50 C 303 53.2 312.6 50.3 312.6 56.3 C 312.6 59.3 309.9 60.9 306.2 60.9 C 302.2 60.9 299.6 59.2 299.5 56 Z M 315.1 56.5 C 315.05 56.51 315.1 48.6 315.1 48.6 C 315.1 48.6 313.44 48.59 313.4 48.6 C 313.3 48.6 313.2 48.5 313.2 48.4 C 313.2 48.4 313.2 46.4 313.2 46.4 C 313.2 46.3 313.3 46.2 313.4 46.2 C 313.44 46.18 315.1 46.2 315.1 46.2 C 315.1 46.2 315.04 42.79 315 42.8 C 315 42.6 315.1 42.6 315.3 42.6 C 315.3 42.6 318.2 42.6 318.2 42.6 C 318.3 42.6 318.4 42.6 318.4 42.8 C 318.44 42.79 318.4 46.2 318.4 46.2 C 318.4 46.2 321.69 46.18 321.7 46.2 C 321.8 46.2 321.9 46.3 321.9 46.4 C 321.9 46.4 321.9 48.4 321.9 48.4 C 321.9 48.5 321.8 48.6 321.7 48.6 C 321.69 48.59 318.4 48.6 318.4 48.6 C 318.4 48.6 318.41 56.43 318.4 56.4 C 318.4 57.9 319 58.4 320.1 58.4 C 320.7 58.4 321.2 58.3 321.6 58.2 C 321.8 58.2 321.9 58.2 321.9 58.4 C 321.9 58.4 321.9 60.2 321.9 60.2 C 321.9 60.3 321.8 60.4 321.7 60.4 C 321 60.7 320.2 60.9 319.4 60.9 C 317.1 60.9 315.1 59.7 315.1 56.5 Z M 322.5 53.4 C 322.5 48.9 325.1 45.8 329.7 45.8 C 334.2 45.8 336.8 48.8 336.8 53.4 C 336.8 57.9 334.2 60.9 329.7 60.9 C 325.1 60.9 322.5 58 322.5 53.4 Z M 333.3 53.4 C 333.3 50 332.1 48.1 329.7 48.1 C 327.2 48.1 326 50 326 53.4 C 326 56.9 327.2 58.7 329.7 58.7 C 332.1 58.7 333.3 56.9 333.3 53.4 Z M 337.9 60.4 C 337.9 60.38 338 55.2 338 55.2 C 338 55.2 337.94 46.4 337.9 46.4 C 337.9 46.3 338 46.2 338.2 46.2 C 338.2 46.2 341 46.2 341 46.2 C 341.1 46.2 341.2 46.2 341.2 46.4 C 341.2 46.4 341.1 48.3 341.1 48.3 C 342.1 46.9 343.4 45.8 345.4 45.8 C 347.5 45.8 348.9 46.8 349.6 48.7 C 350.7 46.7 352.2 45.8 354.1 45.8 C 356.9 45.8 358.6 47.6 358.6 51.5 C 358.61 51.51 358.6 55.2 358.6 55.2 C 358.6 55.2 358.66 60.38 358.7 60.4 C 358.7 60.5 358.6 60.6 358.4 60.6 C 358.4 60.6 355.5 60.6 355.5 60.6 C 355.3 60.6 355.2 60.5 355.2 60.4 C 355.23 60.38 355.3 55.2 355.3 55.2 C 355.3 55.2 355.29 51.6 355.3 51.6 C 355.3 49.3 354.4 48.3 353 48.3 C 351.6 48.3 350.2 49.9 350 52.6 C 350 52.8 350 52.9 350 53 C 349.98 53 350 55.2 350 55.2 C 350 55.2 350.05 60.38 350.1 60.4 C 350.1 60.5 350 60.6 349.8 60.6 C 349.8 60.6 346.8 60.6 346.8 60.6 C 346.7 60.6 346.6 60.5 346.6 60.4 C 346.62 60.38 346.7 55.2 346.7 55.2 C 346.7 55.2 346.69 51.6 346.7 51.6 C 346.7 49.3 345.8 48.3 344.4 48.3 C 342.9 48.3 341.6 49.9 341.3 52.8 C 341.32 52.76 341.3 55.2 341.3 55.2 C 341.3 55.2 341.37 60.38 341.4 60.4 C 341.4 60.5 341.3 60.6 341.1 60.6 C 341.1 60.6 338.1 60.6 338.1 60.6 C 338 60.6 337.9 60.5 337.9 60.4 Z M 359.7 53.4 C 359.7 48.9 362.3 45.8 366.7 45.8 C 371.2 45.8 373.7 48.8 373.8 53.7 C 373.8 53.9 373.7 54 373.5 54 C 373.5 54 363.1 54 363.1 54 C 363.2 57.2 364.5 58.7 366.9 58.7 C 368.6 58.7 369.8 57.8 370.2 56 C 370.2 55.9 370.3 55.8 370.4 55.8 C 370.4 55.8 373.2 55.8 373.2 55.8 C 373.4 55.8 373.5 55.9 373.4 56 C 373.1 58.7 370.7 60.9 366.8 60.9 C 362.2 60.9 359.7 57.8 359.7 53.4 Z M 370.1 51.8 C 370 49.8 368.9 48.1 366.7 48.1 C 364.7 48.1 363.5 49.4 363.1 51.8 C 363.1 51.8 370.1 51.8 370.1 51.8 Z M 374.9 60.4 C 374.89 60.38 375 53.3 375 53.3 C 375 53.3 374.89 46.4 374.9 46.4 C 374.9 46.2 375 46.2 375.1 46.2 C 375.1 46.2 378 46.2 378 46.2 C 378.2 46.2 378.2 46.2 378.2 46.4 C 378.2 46.4 378.1 48.7 378.1 48.7 C 379.2 47 381.1 46.1 383.2 46.1 C 383.4 46.1 383.7 46.1 384 46.1 C 384.1 46.2 384.2 46.3 384.2 46.4 C 384.2 46.4 384.2 48.5 384.2 48.5 C 384.2 48.6 384.1 48.7 383.9 48.7 C 383.7 48.6 383.5 48.6 383.2 48.6 C 380.5 48.6 378.4 50.2 378.2 53.4 C 378.2 53.4 378.3 60.4 378.3 60.4 C 378.3 60.5 378.2 60.6 378 60.6 C 378 60.6 375.1 60.6 375.1 60.6 C 375 60.6 374.9 60.5 374.9 60.4 Z M 384.5 53.5 C 384.5 53.5 384.5 51.6 384.5 51.6 C 384.5 51.5 384.6 51.4 384.7 51.4 C 384.7 51.4 391.3 51.4 391.3 51.4 C 391.4 51.4 391.5 51.5 391.5 51.6 C 391.5 51.6 391.5 53.5 391.5 53.5 C 391.5 53.7 391.4 53.8 391.3 53.8 C 391.3 53.8 384.7 53.8 384.7 53.8 C 384.6 53.8 384.5 53.7 384.5 53.5 Z M 392.1 53.4 C 392.1 48.9 394.7 45.8 399.2 45.8 C 402.9 45.8 405.2 47.9 405.5 50.9 C 405.5 51.1 405.4 51.2 405.3 51.2 C 405.3 51.2 402.6 51.2 402.6 51.2 C 402.5 51.2 402.4 51.1 402.4 50.9 C 402 49 400.8 48.1 399.2 48.1 C 396.7 48.2 395.6 50 395.6 53.4 C 395.6 56.9 396.8 58.6 399.2 58.7 C 401 58.7 402.3 57.5 402.5 55.4 C 402.5 55.3 402.6 55.2 402.7 55.2 C 402.7 55.2 405.5 55.2 405.5 55.2 C 405.6 55.2 405.7 55.3 405.7 55.4 C 405.4 58.6 402.9 60.9 399.2 60.9 C 394.7 60.9 392.1 58 392.1 53.4 Z M 406.3 53.4 C 406.3 48.9 409 45.8 413.4 45.8 C 417.8 45.8 420.4 48.8 420.5 53.7 C 420.5 53.9 420.4 54 420.2 54 C 420.2 54 409.7 54 409.7 54 C 409.8 57.2 411.2 58.7 413.5 58.7 C 415.3 58.7 416.5 57.8 416.8 56 C 416.9 55.9 417 55.8 417.1 55.8 C 417.1 55.8 419.9 55.8 419.9 55.8 C 420 55.8 420.1 55.9 420.1 56 C 419.7 58.7 417.4 60.9 413.5 60.9 C 408.8 60.9 406.3 57.8 406.3 53.4 Z M 416.8 51.8 C 416.7 49.8 415.6 48.1 413.4 48.1 C 411.3 48.1 410.2 49.4 409.8 51.8 C 409.8 51.8 416.8 51.8 416.8 51.8 Z M 421.6 60.4 C 421.58 60.38 421.6 53.9 421.6 53.9 C 421.6 53.9 421.62 46.4 421.6 46.4 C 421.6 46.3 421.7 46.2 421.8 46.2 C 421.8 46.2 424.7 46.2 424.7 46.2 C 424.8 46.2 424.9 46.2 424.9 46.4 C 424.9 46.4 424.8 48.3 424.8 48.3 C 425.7 47 427.4 45.8 429.5 45.8 C 432.5 45.8 434.5 47.8 434.5 51.5 C 434.47 51.51 434.5 54.5 434.5 54.5 C 434.5 54.5 434.53 60.38 434.5 60.4 C 434.5 60.5 434.4 60.6 434.3 60.6 C 434.3 60.6 431.3 60.6 431.3 60.6 C 431.2 60.6 431.1 60.5 431.1 60.4 C 431.11 60.38 431.2 54.5 431.2 54.5 C 431.2 54.5 431.17 51.6 431.2 51.6 C 431.2 49.4 430.1 48.3 428.5 48.3 C 426.8 48.3 425.3 49.8 425 52.8 C 424.98 52.76 425 54.5 425 54.5 C 425 54.5 425.03 60.38 425 60.4 C 425 60.5 425 60.6 424.8 60.6 C 424.8 60.6 421.8 60.6 421.8 60.6 C 421.7 60.6 421.6 60.5 421.6 60.4 Z M 437.2 56.5 C 437.23 56.51 437.3 48.6 437.3 48.6 C 437.3 48.6 435.62 48.59 435.6 48.6 C 435.5 48.6 435.4 48.5 435.4 48.4 C 435.4 48.4 435.4 46.4 435.4 46.4 C 435.4 46.3 435.5 46.2 435.6 46.2 C 435.62 46.18 437.2 46.2 437.2 46.2 C 437.2 46.2 437.21 42.79 437.2 42.8 C 437.2 42.6 437.3 42.6 437.5 42.6 C 437.5 42.6 440.4 42.6 440.4 42.6 C 440.5 42.6 440.6 42.6 440.6 42.8 C 440.62 42.79 440.6 46.2 440.6 46.2 C 440.6 46.2 443.86 46.18 443.9 46.2 C 444 46.2 444.1 46.3 444.1 46.4 C 444.1 46.4 444.1 48.4 444.1 48.4 C 444.1 48.5 444 48.6 443.9 48.6 C 443.86 48.59 440.6 48.6 440.6 48.6 C 440.6 48.6 440.59 56.43 440.6 56.4 C 440.6 57.9 441.2 58.4 442.3 58.4 C 442.9 58.4 443.4 58.3 443.8 58.2 C 444 58.2 444.1 58.2 444.1 58.4 C 444.1 58.4 444.1 60.2 444.1 60.2 C 444.1 60.3 444 60.4 443.9 60.4 C 443.2 60.7 442.4 60.9 441.6 60.9 C 439.3 60.9 437.2 59.7 437.2 56.5 Z M 445.1 60.4 C 445.08 60.38 445.2 53.3 445.2 53.3 C 445.2 53.3 445.08 46.4 445.1 46.4 C 445.1 46.2 445.2 46.2 445.3 46.2 C 445.3 46.2 448.2 46.2 448.2 46.2 C 448.4 46.2 448.4 46.2 448.4 46.4 C 448.4 46.4 448.3 48.7 448.3 48.7 C 449.4 47 451.3 46.1 453.4 46.1 C 453.6 46.1 453.9 46.1 454.2 46.1 C 454.3 46.2 454.4 46.3 454.4 46.4 C 454.4 46.4 454.4 48.5 454.4 48.5 C 454.4 48.6 454.3 48.7 454.1 48.7 C 453.9 48.6 453.7 48.6 453.4 48.6 C 450.7 48.6 448.6 50.2 448.4 53.4 C 448.4 53.4 448.5 60.4 448.5 60.4 C 448.5 60.5 448.4 60.6 448.2 60.6 C 448.2 60.6 445.3 60.6 445.3 60.6 C 445.2 60.6 445.1 60.5 445.1 60.4 Z M 455.3 44.4 C 455.3 44.4 455.3 41.7 455.3 41.7 C 455.3 41.5 455.4 41.4 455.6 41.4 C 455.6 41.4 458.5 41.4 458.5 41.4 C 458.7 41.4 458.7 41.5 458.7 41.7 C 458.7 41.7 458.7 44.4 458.7 44.4 C 458.7 44.6 458.7 44.7 458.5 44.7 C 458.5 44.7 455.6 44.7 455.6 44.7 C 455.4 44.7 455.3 44.6 455.3 44.4 Z M 455.3 60.4 C 455.32 60.38 455.4 53.3 455.4 53.3 C 455.4 53.3 455.32 46.4 455.3 46.4 C 455.3 46.2 455.4 46.2 455.5 46.2 C 455.5 46.2 458.5 46.2 458.5 46.2 C 458.7 46.2 458.7 46.2 458.7 46.4 C 458.75 46.4 458.7 53.3 458.7 53.3 C 458.7 53.3 458.75 60.38 458.7 60.4 C 458.7 60.5 458.7 60.6 458.5 60.6 C 458.5 60.6 455.5 60.6 455.5 60.6 C 455.4 60.6 455.3 60.5 455.3 60.4 Z M 460 53.4 C 460 48.9 462.6 45.8 467.1 45.8 C 470.8 45.8 473.1 47.9 473.4 50.9 C 473.4 51.1 473.3 51.2 473.2 51.2 C 473.2 51.2 470.5 51.2 470.5 51.2 C 470.4 51.2 470.3 51.1 470.3 50.9 C 469.9 49 468.6 48.1 467.1 48.1 C 464.6 48.2 463.5 50 463.5 53.4 C 463.5 56.9 464.6 58.6 467.1 58.7 C 468.9 58.7 470.2 57.5 470.4 55.4 C 470.4 55.3 470.5 55.2 470.6 55.2 C 470.6 55.2 473.3 55.2 473.3 55.2 C 473.5 55.2 473.6 55.3 473.6 55.4 C 473.3 58.6 470.8 60.9 467 60.9 C 462.6 60.9 460 58 460 53.4 Z M 479 60.4 C 478.99 60.38 479.1 53.3 479.1 53.3 C 479.1 53.3 478.99 46.4 479 46.4 C 479 46.2 479.1 46.2 479.2 46.2 C 479.2 46.2 482.1 46.2 482.1 46.2 C 482.3 46.2 482.4 46.2 482.4 46.4 C 482.4 46.4 482.3 48.7 482.3 48.7 C 483.3 47 485.2 46.1 487.3 46.1 C 487.5 46.1 487.8 46.1 488.1 46.1 C 488.2 46.2 488.3 46.3 488.3 46.4 C 488.3 46.4 488.3 48.5 488.3 48.5 C 488.3 48.6 488.2 48.7 488 48.7 C 487.8 48.6 487.6 48.6 487.3 48.6 C 484.6 48.6 482.5 50.2 482.3 53.4 C 482.3 53.4 482.4 60.4 482.4 60.4 C 482.4 60.5 482.3 60.6 482.1 60.6 C 482.1 60.6 479.2 60.6 479.2 60.6 C 479.1 60.6 479 60.5 479 60.4 Z M 488.7 53.4 C 488.7 48.9 491.4 45.8 495.8 45.8 C 500.2 45.8 502.8 48.8 502.9 53.7 C 502.9 53.9 502.8 54 502.6 54 C 502.6 54 492.1 54 492.1 54 C 492.2 57.2 493.6 58.7 495.9 58.7 C 497.7 58.7 498.9 57.8 499.2 56 C 499.3 55.9 499.4 55.8 499.5 55.8 C 499.5 55.8 502.3 55.8 502.3 55.8 C 502.4 55.8 502.5 55.9 502.5 56 C 502.1 58.7 499.8 60.9 495.9 60.9 C 491.2 60.9 488.7 57.8 488.7 53.4 Z M 499.2 51.8 C 499.1 49.8 498 48.1 495.8 48.1 C 493.7 48.1 492.6 49.4 492.2 51.8 C 492.2 51.8 499.2 51.8 499.2 51.8 Z M 504.1 60.4 C 504.12 60.38 504.2 50.7 504.2 50.7 C 504.2 50.7 504.11 41.22 504.1 41.2 C 504.1 41.1 504.2 41 504.3 41 C 504.3 41 507.2 41 507.2 41 C 507.4 41 507.5 41.1 507.5 41.2 C 507.47 41.22 507.4 50.7 507.4 50.7 C 507.4 50.7 507.47 60.38 507.5 60.4 C 507.5 60.5 507.4 60.6 507.2 60.6 C 507.2 60.6 504.3 60.6 504.3 60.6 C 504.2 60.6 504.1 60.5 504.1 60.4 Z M 508.7 53.4 C 508.7 49.3 511 45.9 514.9 45.9 C 516.8 45.9 518.3 46.7 519.3 48.1 C 519.3 48.1 519.2 46.4 519.2 46.4 C 519.2 46.3 519.3 46.2 519.4 46.2 C 519.4 46.2 522.4 46.2 522.4 46.2 C 522.5 46.2 522.6 46.2 522.6 46.4 C 522.6 46.4 522.5 53.3 522.5 53.3 C 522.5 53.3 522.6 60.38 522.6 60.4 C 522.6 60.5 522.5 60.6 522.4 60.6 C 522.4 60.6 519.4 60.6 519.4 60.6 C 519.3 60.6 519.2 60.5 519.2 60.4 C 519.2 60.4 519.3 58.5 519.3 58.5 C 518.3 60 516.8 60.9 514.8 60.9 C 510.9 60.9 508.7 57.6 508.7 53.4 Z M 519.4 53.5 C 519.4 50.1 518.1 48.2 515.8 48.2 C 513.4 48.1 512.2 50.1 512.2 53.2 C 512.2 56.6 513.4 58.6 515.8 58.6 C 518 58.6 519.3 56.9 519.4 53.5 Z M 525.4 56.5 C 525.43 56.51 525.5 48.6 525.5 48.6 C 525.5 48.6 523.82 48.59 523.8 48.6 C 523.7 48.6 523.6 48.5 523.6 48.4 C 523.6 48.4 523.6 46.4 523.6 46.4 C 523.6 46.3 523.7 46.2 523.8 46.2 C 523.82 46.18 525.4 46.2 525.4 46.2 C 525.4 46.2 525.41 42.79 525.4 42.8 C 525.4 42.6 525.5 42.6 525.7 42.6 C 525.7 42.6 528.6 42.6 528.6 42.6 C 528.7 42.6 528.8 42.6 528.8 42.8 C 528.82 42.79 528.8 46.2 528.8 46.2 C 528.8 46.2 532.06 46.18 532.1 46.2 C 532.2 46.2 532.3 46.3 532.3 46.4 C 532.3 46.4 532.3 48.4 532.3 48.4 C 532.3 48.5 532.2 48.6 532.1 48.6 C 532.06 48.59 528.8 48.6 528.8 48.6 C 528.8 48.6 528.79 56.43 528.8 56.4 C 528.8 57.9 529.4 58.4 530.5 58.4 C 531.1 58.4 531.6 58.3 532 58.2 C 532.2 58.2 532.3 58.2 532.3 58.4 C 532.3 58.4 532.3 60.2 532.3 60.2 C 532.3 60.3 532.2 60.4 532.1 60.4 C 531.4 60.7 530.6 60.9 529.8 60.9 C 527.5 60.9 525.4 59.7 525.4 56.5 Z M 533.4 44.4 C 533.4 44.4 533.4 41.7 533.4 41.7 C 533.4 41.5 533.5 41.4 533.6 41.4 C 533.6 41.4 536.6 41.4 536.6 41.4 C 536.7 41.4 536.8 41.5 536.8 41.7 C 536.8 41.7 536.8 44.4 536.8 44.4 C 536.8 44.6 536.7 44.7 536.6 44.7 C 536.6 44.7 533.6 44.7 533.6 44.7 C 533.5 44.7 533.4 44.6 533.4 44.4 Z M 533.4 60.4 C 533.39 60.38 533.5 53.3 533.5 53.3 C 533.5 53.3 533.39 46.4 533.4 46.4 C 533.4 46.2 533.5 46.2 533.6 46.2 C 533.6 46.2 536.6 46.2 536.6 46.2 C 536.7 46.2 536.8 46.2 536.8 46.4 C 536.82 46.4 536.8 53.3 536.8 53.3 C 536.8 53.3 536.82 60.38 536.8 60.4 C 536.8 60.5 536.7 60.6 536.6 60.6 C 536.6 60.6 533.6 60.6 533.6 60.6 C 533.5 60.6 533.4 60.5 533.4 60.4 Z M 538.1 53.4 C 538.1 48.9 540.7 45.8 545.2 45.8 C 549.8 45.8 552.3 48.8 552.3 53.4 C 552.3 57.9 549.8 60.9 545.2 60.9 C 540.7 60.9 538.1 58 538.1 53.4 Z M 548.8 53.4 C 548.8 50 547.6 48.1 545.2 48.1 C 542.7 48.1 541.5 50 541.5 53.4 C 541.5 56.9 542.7 58.7 545.2 58.7 C 547.7 58.7 548.8 56.9 548.8 53.4 Z M 553.5 60.4 C 553.45 60.38 553.5 53.9 553.5 53.9 C 553.5 53.9 553.5 46.4 553.5 46.4 C 553.5 46.3 553.6 46.2 553.7 46.2 C 553.7 46.2 556.5 46.2 556.5 46.2 C 556.7 46.2 556.8 46.2 556.8 46.4 C 556.8 46.4 556.7 48.3 556.7 48.3 C 557.6 47 559.3 45.8 561.4 45.8 C 564.4 45.8 566.3 47.8 566.3 51.5 C 566.35 51.51 566.3 54.5 566.3 54.5 C 566.3 54.5 566.4 60.38 566.4 60.4 C 566.4 60.5 566.3 60.6 566.2 60.6 C 566.2 60.6 563.2 60.6 563.2 60.6 C 563.1 60.6 563 60.5 563 60.4 C 562.99 60.38 563 54.5 563 54.5 C 563 54.5 563.04 51.6 563 51.6 C 563 49.4 562 48.3 560.4 48.3 C 558.7 48.3 557.2 49.8 556.9 52.8 C 556.86 52.76 556.9 54.5 556.9 54.5 C 556.9 54.5 556.91 60.38 556.9 60.4 C 556.9 60.5 556.8 60.6 556.7 60.6 C 556.7 60.6 553.7 60.6 553.7 60.6 C 553.5 60.6 553.5 60.5 553.5 60.4 Z M 567.4 56 C 567.4 55.8 567.5 55.7 567.6 55.7 C 567.6 55.7 570.4 55.7 570.4 55.7 C 570.6 55.7 570.7 55.8 570.7 56 C 570.8 57.9 572 58.8 574.3 58.8 C 576.1 58.8 577.3 58 577.3 56.6 C 577.3 53.3 567.7 56.2 567.7 50.3 C 567.7 47.4 570.1 45.9 573.7 45.9 C 577.3 45.9 579.8 47.3 580 50.3 C 580 50.4 579.9 50.5 579.8 50.5 C 579.8 50.5 577.1 50.5 577.1 50.5 C 577 50.5 576.9 50.4 576.9 50.3 C 576.7 48.8 575.6 47.9 573.7 47.9 C 572 47.9 570.9 48.6 570.9 50 C 570.9 53.2 580.5 50.3 580.5 56.3 C 580.5 59.3 577.8 60.9 574.1 60.9 C 570.1 60.9 567.5 59.2 567.4 56 Z M 581.7 60.4 C 581.65 60.38 581.7 50.7 581.7 50.7 C 581.7 50.7 581.65 41.22 581.7 41.2 C 581.7 41.1 581.7 41 581.9 41 C 581.9 41 584.8 41 584.8 41 C 584.9 41 585 41.1 585 41.2 C 585 41.2 584.9 48.2 584.9 48.2 C 585.9 46.8 587.4 45.8 589.5 45.8 C 592.6 45.8 594.5 47.7 594.5 51.9 C 594.49 51.93 594.5 54.9 594.5 54.9 C 594.5 54.9 594.54 60.38 594.5 60.4 C 594.5 60.5 594.5 60.6 594.3 60.6 C 594.3 60.6 591.3 60.6 591.3 60.6 C 591.2 60.6 591.1 60.5 591.1 60.4 C 591.11 60.38 591.2 55 591.2 55 C 591.2 55 591.17 51.6 591.2 51.6 C 591.1 49.3 590.1 48.3 588.6 48.3 C 587 48.3 585.5 49.6 584.9 51.7 C 584.9 51.7 585 60.4 585 60.4 C 585 60.5 584.9 60.6 584.8 60.6 C 584.8 60.6 581.9 60.6 581.9 60.6 C 581.7 60.6 581.7 60.5 581.7 60.4 Z M 596.1 44.4 C 596.1 44.4 596.1 41.7 596.1 41.7 C 596.1 41.5 596.1 41.4 596.3 41.4 C 596.3 41.4 599.2 41.4 599.2 41.4 C 599.4 41.4 599.5 41.5 599.5 41.7 C 599.5 41.7 599.5 44.4 599.5 44.4 C 599.5 44.6 599.4 44.7 599.2 44.7 C 599.2 44.7 596.3 44.7 596.3 44.7 C 596.1 44.7 596.1 44.6 596.1 44.4 Z M 596 60.4 C 596.04 60.38 596.1 53.3 596.1 53.3 C 596.1 53.3 596.04 46.4 596 46.4 C 596 46.2 596.1 46.2 596.3 46.2 C 596.3 46.2 599.2 46.2 599.2 46.2 C 599.4 46.2 599.5 46.2 599.5 46.4 C 599.47 46.4 599.4 53.3 599.4 53.3 C 599.4 53.3 599.47 60.38 599.5 60.4 C 599.5 60.5 599.4 60.6 599.2 60.6 C 599.2 60.6 596.3 60.6 596.3 60.6 C 596.1 60.6 596 60.5 596 60.4 Z M 601.1 65.1 C 601.1 65.14 601.2 54.5 601.2 54.5 C 601.2 54.5 601.1 46.4 601.1 46.4 C 601.1 46.2 601.2 46.2 601.3 46.2 C 601.3 46.2 604.3 46.2 604.3 46.2 C 604.4 46.2 604.5 46.3 604.5 46.4 C 604.5 46.4 604.4 48.3 604.4 48.3 C 605.4 46.8 606.9 45.9 608.9 45.9 C 612.8 45.9 615 49.1 615 53.3 C 615 57.5 612.7 60.9 608.8 60.9 C 606.9 60.9 605.4 60.1 604.5 58.7 C 604.5 58.7 604.5 65.1 604.5 65.1 C 604.5 65.3 604.5 65.4 604.3 65.4 C 604.3 65.4 601.3 65.4 601.3 65.4 C 601.2 65.4 601.1 65.3 601.1 65.1 Z M 611.5 53.5 C 611.5 50.2 610.3 48.2 607.9 48.2 C 605.7 48.2 604.4 49.9 604.3 53.3 C 604.3 56.7 605.6 58.6 607.9 58.6 C 610.3 58.6 611.5 56.7 611.5 53.5 Z M 615.7 56 C 615.7 55.8 615.8 55.7 615.9 55.7 C 615.9 55.7 618.8 55.7 618.8 55.7 C 618.9 55.7 619 55.8 619 56 C 619.1 57.9 620.3 58.8 622.6 58.8 C 624.5 58.8 625.6 58 625.6 56.6 C 625.6 53.3 616 56.2 616 50.3 C 616 47.4 618.4 45.9 622 45.9 C 625.6 45.9 628.1 47.3 628.3 50.3 C 628.3 50.4 628.2 50.5 628.1 50.5 C 628.1 50.5 625.4 50.5 625.4 50.5 C 625.3 50.5 625.2 50.4 625.2 50.3 C 625 48.8 623.9 47.9 622 47.9 C 620.3 47.9 619.3 48.6 619.3 50 C 619.3 53.2 628.8 50.3 628.8 56.3 C 628.8 59.3 626.1 60.9 622.4 60.9 C 618.4 60.9 615.8 59.2 615.7 56 Z M 629.7 60.4 C 629.7 60.4 629.7 57.4 629.7 57.4 C 629.7 57.3 629.8 57.2 629.9 57.2 C 629.9 57.2 633.1 57.2 633.1 57.2 C 633.2 57.2 633.3 57.3 633.3 57.4 C 633.3 57.4 633.3 60.4 633.3 60.4 C 633.3 60.5 633.2 60.6 633.1 60.6 C 633.1 60.6 629.9 60.6 629.9 60.6 C 629.8 60.6 629.7 60.5 629.7 60.4 Z " stroke="none" fill="#f28620"/>  </g>  <g id="Polygon25729">    <path d="M 0.4 18.7 C 0.4 18.5 0.5 18.4 0.7 18.4 C 0.7 18.4 4.7 18.4 4.7 18.4 C 4.9 18.4 5 18.5 5 18.7 C 5.3 22.1 6.9 24.2 11.4 24.2 C 14.9 24.2 17.2 23 17.2 20.1 C 17.2 13.7 0.9 18.5 0.9 8.7 C 0.9 4.1 4.6 1.3 10.6 1.3 C 16.4 1.3 20.2 3.7 20.9 9 C 20.9 9.2 20.8 9.3 20.6 9.3 C 20.6 9.3 16.6 9.3 16.6 9.3 C 16.4 9.3 16.3 9.2 16.3 9 C 16 6.1 14 4.7 10.4 4.7 C 7.4 4.7 5.3 5.8 5.3 8.3 C 5.3 14.3 21.5 9.6 21.5 19.5 C 21.5 24.8 17.5 27.5 11.3 27.5 C 4.8 27.5 0.6 24.6 0.4 18.7 Z M 22.4 17.8 C 22.4 12.4 25.4 8.1 30.4 8.1 C 32.9 8.1 34.8 9.1 36 11 C 36 11 35.9 8.8 35.9 8.8 C 35.9 8.6 36 8.5 36.2 8.5 C 36.2 8.5 40 8.5 40 8.5 C 40.2 8.5 40.3 8.6 40.3 8.7 C 40.27 8.75 40.2 17.6 40.2 17.6 C 40.2 17.6 40.27 26.71 40.3 26.7 C 40.3 26.9 40.2 27 40 27 C 40 27 36.2 27 36.2 27 C 36 27 35.9 26.9 35.9 26.7 C 35.9 26.7 36 24.3 36 24.3 C 34.8 26.2 32.8 27.3 30.3 27.3 C 25.2 27.3 22.4 23.2 22.4 17.8 Z M 36.1 17.9 C 36.1 13.5 34.5 11.1 31.6 11 C 28.4 11 26.9 13.5 26.9 17.5 C 26.9 21.8 28.4 24.4 31.5 24.4 C 34.4 24.4 36.1 22.2 36.1 17.9 Z M 42.4 26.7 C 42.41 26.71 42.5 14.3 42.5 14.3 C 42.5 14.3 42.39 2.09 42.4 2.1 C 42.4 1.9 42.5 1.8 42.7 1.8 C 42.7 1.8 46.4 1.8 46.4 1.8 C 46.6 1.8 46.7 1.9 46.7 2.1 C 46.71 2.09 46.6 14.3 46.6 14.3 C 46.6 14.3 46.71 26.71 46.7 26.7 C 46.7 26.9 46.6 27 46.4 27 C 46.4 27 42.7 27 42.7 27 C 42.5 27 42.4 26.9 42.4 26.7 Z M 48.3 17.8 C 48.3 12 51.8 8 57.4 8 C 63.1 8 66.4 11.9 66.5 18.2 C 66.5 18.4 66.4 18.5 66.2 18.5 C 66.2 18.5 52.7 18.5 52.7 18.5 C 52.9 22.7 54.6 24.5 57.6 24.5 C 59.9 24.5 61.4 23.4 61.9 21.1 C 61.9 20.9 62 20.8 62.2 20.8 C 62.2 20.8 65.8 20.8 65.8 20.8 C 66 20.8 66.1 20.9 66.1 21 C 65.6 24.6 62.5 27.4 57.5 27.4 C 51.6 27.4 48.3 23.4 48.3 17.8 Z M 61.8 15.7 C 61.7 13.1 60.3 10.9 57.4 10.9 C 54.8 10.9 53.3 12.6 52.8 15.7 C 52.8 15.7 61.8 15.7 61.8 15.7 Z M 67.4 21 C 67.4 20.8 67.5 20.7 67.7 20.7 C 67.7 20.7 71.3 20.7 71.3 20.7 C 71.5 20.7 71.6 20.8 71.6 21 C 71.7 23.5 73.3 24.7 76.2 24.7 C 78.7 24.7 80.2 23.7 80.2 21.9 C 80.2 17.6 67.8 21.3 67.8 13.7 C 67.8 10 70.9 8 75.6 8 C 80.1 8 83.4 9.9 83.6 13.7 C 83.7 13.9 83.5 14 83.4 14 C 83.4 14 79.9 14 79.9 14 C 79.7 14 79.6 13.9 79.6 13.8 C 79.3 11.8 77.9 10.7 75.5 10.7 C 73.3 10.7 72 11.6 72 13.4 C 72 17.5 84.3 13.7 84.3 21.5 C 84.3 25.3 80.8 27.4 76 27.4 C 70.9 27.4 67.6 25.3 67.4 21 Z M 90.9 20.3 C 90.9 16.3 93.8 14.1 96.9 12.5 C 95.3 10.5 94.2 8.7 94.2 6.6 C 94.2 3.6 96.7 1.2 101.2 1.2 C 104.9 1.2 107.8 3.2 107.9 6.6 C 107.9 9.7 105.2 11.4 102.3 12.9 C 102.3 12.9 107.5 18.8 107.5 18.8 C 108 17.5 108.4 16 108.5 14.3 C 108.5 14.1 108.6 14 108.8 14 C 108.8 14 112.2 14 112.2 14 C 112.4 14 112.5 14.1 112.5 14.3 C 112.2 17.1 111.4 19.7 110 21.9 C 110 21.9 114 26.6 114 26.6 C 114.2 26.8 114.1 27 113.9 27 C 113.9 27 109.4 27 109.4 27 C 109.2 27 109.1 27 109 26.8 C 109 26.8 107.2 24.8 107.2 24.8 C 105.2 26.5 102.7 27.4 99.8 27.4 C 95.2 27.4 90.9 25 90.9 20.3 Z M 100.4 10.7 C 102.5 9.5 104.2 8.4 104.2 6.6 C 104.2 4.8 103.1 3.8 101.2 3.8 C 99.4 3.8 98.3 4.7 98.3 6.7 C 98.3 7.9 98.9 8.9 100.4 10.7 Z M 100.2 24.4 C 102.2 24.4 103.9 23.6 105.2 22.3 C 105.2 22.3 98.9 14.9 98.9 14.9 C 96.9 16.1 95.2 17.6 95.2 20 C 95.2 23 97.3 24.4 100.2 24.4 Z M 120.5 14.4 C 120.5 6.4 125.2 1.3 132.6 1.3 C 137.8 1.3 142.2 3.6 143.5 10.2 C 143.5 10.4 143.4 10.5 143.2 10.5 C 143.2 10.5 139.5 10.5 139.5 10.5 C 139.3 10.5 139.2 10.4 139.2 10.2 C 138.4 6.5 136 4.7 132.5 4.7 C 127.7 4.7 125 8.5 125 14.4 C 125 20.7 127.8 24.1 132.5 24.1 C 136.4 24.1 138.7 22 139.3 18 C 139.3 17.8 139.4 17.7 139.6 17.7 C 139.6 17.7 143.4 17.7 143.4 17.7 C 143.6 17.7 143.7 17.9 143.7 18.1 C 142.5 24.7 138.4 27.5 132.6 27.5 C 125.1 27.5 120.5 22.4 120.5 14.4 Z M 145.3 26.7 C 145.28 26.71 145.4 14.3 145.4 14.3 C 145.4 14.3 145.26 2.09 145.3 2.1 C 145.3 1.9 145.4 1.8 145.6 1.8 C 145.6 1.8 149.3 1.8 149.3 1.8 C 149.5 1.8 149.6 1.9 149.6 2.1 C 149.58 2.09 149.5 14.3 149.5 14.3 C 149.5 14.3 149.58 26.71 149.6 26.7 C 149.6 26.9 149.5 27 149.3 27 C 149.3 27 145.6 27 145.6 27 C 145.4 27 145.3 26.9 145.3 26.7 Z M 151.9 6.2 C 151.9 6.2 151.9 2.7 151.9 2.7 C 151.9 2.5 152 2.4 152.2 2.4 C 152.2 2.4 156 2.4 156 2.4 C 156.1 2.4 156.3 2.5 156.3 2.7 C 156.3 2.7 156.3 6.2 156.3 6.2 C 156.3 6.4 156.1 6.5 156 6.5 C 156 6.5 152.2 6.5 152.2 6.5 C 152 6.5 151.9 6.4 151.9 6.2 Z M 151.8 26.7 C 151.85 26.71 151.9 17.6 151.9 17.6 C 151.9 17.6 151.85 8.75 151.8 8.7 C 151.8 8.6 152 8.5 152.1 8.5 C 152.1 8.5 156 8.5 156 8.5 C 156.1 8.5 156.3 8.6 156.3 8.7 C 156.26 8.75 156.2 17.6 156.2 17.6 C 156.2 17.6 156.26 26.71 156.3 26.7 C 156.3 26.9 156.1 27 156 27 C 156 27 152.1 27 152.1 27 C 152 27 151.8 26.9 151.8 26.7 Z M 157.9 17.8 C 157.9 12 161.3 8 166.9 8 C 172.7 8 175.9 11.9 176 18.2 C 176 18.4 175.9 18.5 175.7 18.5 C 175.7 18.5 162.2 18.5 162.2 18.5 C 162.4 22.7 164.1 24.5 167.1 24.5 C 169.4 24.5 170.9 23.4 171.4 21.1 C 171.4 20.9 171.5 20.8 171.7 20.8 C 171.7 20.8 175.3 20.8 175.3 20.8 C 175.5 20.8 175.6 20.9 175.6 21 C 175.1 24.6 172.1 27.4 167.1 27.4 C 161.1 27.4 157.9 23.4 157.9 17.8 Z M 171.3 15.7 C 171.2 13.1 169.8 10.9 166.9 10.9 C 164.3 10.9 162.8 12.6 162.3 15.7 C 162.3 15.7 171.3 15.7 171.3 15.7 Z M 177.5 26.7 C 177.46 26.71 177.5 18.3 177.5 18.3 C 177.5 18.3 177.51 8.75 177.5 8.7 C 177.5 8.6 177.6 8.5 177.8 8.5 C 177.8 8.5 181.4 8.5 181.4 8.5 C 181.6 8.5 181.7 8.6 181.7 8.8 C 181.7 8.8 181.6 11.3 181.6 11.3 C 182.8 9.5 184.9 8 187.7 8 C 191.6 8 194 10.6 194 15.3 C 194.04 15.32 194 19.1 194 19.1 C 194 19.1 194.11 26.71 194.1 26.7 C 194.1 26.9 194 27 193.8 27 C 193.8 27 190 27 190 27 C 189.8 27 189.7 26.9 189.7 26.7 C 189.72 26.71 189.8 19.1 189.8 19.1 C 189.8 19.1 189.79 15.43 189.8 15.4 C 189.8 12.7 188.4 11.3 186.4 11.3 C 184.2 11.3 182.2 13.1 181.8 16.9 C 181.83 16.92 181.8 19.1 181.8 19.1 C 181.8 19.1 181.9 26.71 181.9 26.7 C 181.9 26.9 181.8 27 181.6 27 C 181.6 27 177.7 27 177.7 27 C 177.6 27 177.5 26.9 177.5 26.7 Z M 197.6 21.7 C 197.58 21.74 197.6 11.6 197.6 11.6 C 197.6 11.6 195.51 11.56 195.5 11.6 C 195.3 11.6 195.2 11.4 195.2 11.3 C 195.2 11.3 195.2 8.7 195.2 8.7 C 195.2 8.6 195.3 8.5 195.5 8.5 C 195.51 8.46 197.6 8.5 197.6 8.5 C 197.6 8.5 197.56 4.1 197.6 4.1 C 197.6 3.9 197.7 3.8 197.9 3.8 C 197.9 3.8 201.6 3.8 201.6 3.8 C 201.8 3.8 201.9 3.9 201.9 4.1 C 201.94 4.1 201.9 8.5 201.9 8.5 C 201.9 8.5 206.11 8.46 206.1 8.5 C 206.3 8.5 206.4 8.6 206.4 8.7 C 206.4 8.7 206.4 11.3 206.4 11.3 C 206.4 11.4 206.3 11.6 206.1 11.6 C 206.11 11.56 201.9 11.6 201.9 11.6 C 201.9 11.6 201.9 21.64 201.9 21.6 C 201.9 23.6 202.7 24.2 204.1 24.2 C 204.8 24.2 205.5 24.1 206 23.9 C 206.3 23.9 206.4 24 206.4 24.2 C 206.4 24.2 206.4 26.5 206.4 26.5 C 206.4 26.6 206.3 26.7 206.2 26.8 C 205.3 27.1 204.2 27.3 203.1 27.3 C 200.2 27.3 197.6 25.9 197.6 21.7 Z M 213.5 26.7 C 213.51 26.71 213.6 14.2 213.6 14.2 C 213.6 14.2 213.51 2.09 213.5 2.1 C 213.5 1.9 213.6 1.8 213.8 1.8 C 213.8 1.8 223.3 1.8 223.3 1.8 C 229.4 1.8 232.9 4.4 232.9 9.4 C 232.9 13.3 230.7 15.8 227 16.7 C 227 16.7 233.4 26.6 233.4 26.6 C 233.5 26.8 233.5 27 233.2 27 C 233.2 27 228.8 27 228.8 27 C 228.6 27 228.5 26.9 228.4 26.8 C 228.4 26.8 225.6 22.1 225.6 22.1 L 222.4 17.1 L 217.9 17.1 C 217.9 17.1 217.98 26.71 218 26.7 C 218 26.9 217.9 27 217.7 27 C 217.7 27 213.8 27 213.8 27 C 213.6 27 213.5 26.9 213.5 26.7 Z M 223.7 13.9 C 226.5 13.9 228.7 12.6 228.7 9.5 C 228.7 6.5 226.8 5 223.6 5 C 223.59 5.04 218 5 218 5 L 217.9 13.9 C 217.9 13.9 223.68 13.88 223.7 13.9 Z M 234.1 17.8 C 234.1 12 237.6 8 243.2 8 C 248.9 8 252.2 11.9 252.3 18.2 C 252.3 18.4 252.2 18.5 252 18.5 C 252 18.5 238.5 18.5 238.5 18.5 C 238.7 22.7 240.4 24.5 243.4 24.5 C 245.7 24.5 247.2 23.4 247.7 21.1 C 247.7 20.9 247.8 20.8 248 20.8 C 248 20.8 251.6 20.8 251.6 20.8 C 251.8 20.8 251.9 20.9 251.9 21 C 251.4 24.6 248.3 27.4 243.3 27.4 C 237.4 27.4 234.1 23.4 234.1 17.8 Z M 247.6 15.7 C 247.5 13.1 246.1 10.9 243.2 10.9 C 240.6 10.9 239.1 12.6 238.6 15.7 C 238.6 15.7 247.6 15.7 247.6 15.7 Z M 253.9 26.7 C 253.92 26.71 254 14.3 254 14.3 C 254 14.3 253.9 2.09 253.9 2.1 C 253.9 1.9 254 1.8 254.2 1.8 C 254.2 1.8 257.9 1.8 257.9 1.8 C 258.1 1.8 258.2 1.9 258.2 2.1 C 258.22 2.09 258.1 14.3 258.1 14.3 C 258.1 14.3 258.22 26.71 258.2 26.7 C 258.2 26.9 258.1 27 257.9 27 C 257.9 27 254.2 27 254.2 27 C 254 27 253.9 26.9 253.9 26.7 Z M 259.9 17.8 C 259.9 12.4 262.8 8.1 267.8 8.1 C 270.3 8.1 272.2 9.1 273.4 11 C 273.4 11 273.3 8.8 273.3 8.8 C 273.3 8.6 273.4 8.5 273.6 8.5 C 273.6 8.5 277.4 8.5 277.4 8.5 C 277.6 8.5 277.7 8.6 277.7 8.7 C 277.68 8.75 277.6 17.6 277.6 17.6 C 277.6 17.6 277.68 26.71 277.7 26.7 C 277.7 26.9 277.6 27 277.4 27 C 277.4 27 273.6 27 273.6 27 C 273.5 27 273.3 26.9 273.4 26.7 C 273.4 26.7 273.4 24.3 273.4 24.3 C 272.2 26.2 270.2 27.3 267.7 27.3 C 262.6 27.3 259.9 23.2 259.9 17.8 Z M 273.5 17.9 C 273.5 13.5 271.9 11.1 269 11 C 265.8 11 264.3 13.5 264.3 17.5 C 264.3 21.8 265.8 24.4 268.9 24.4 C 271.8 24.4 273.5 22.2 273.5 17.9 Z M 281.3 21.7 C 281.32 21.74 281.4 11.6 281.4 11.6 C 281.4 11.6 279.25 11.56 279.2 11.6 C 279 11.6 278.9 11.4 278.9 11.3 C 278.9 11.3 278.9 8.7 278.9 8.7 C 278.9 8.6 279.1 8.5 279.2 8.5 C 279.25 8.46 281.3 8.5 281.3 8.5 C 281.3 8.5 281.3 4.1 281.3 4.1 C 281.3 3.9 281.4 3.8 281.6 3.8 C 281.6 3.8 285.4 3.8 285.4 3.8 C 285.5 3.8 285.7 3.9 285.7 4.1 C 285.67 4.1 285.6 8.5 285.6 8.5 C 285.6 8.5 289.85 8.46 289.8 8.5 C 290 8.5 290.1 8.6 290.1 8.7 C 290.1 8.7 290.1 11.3 290.1 11.3 C 290.1 11.4 290 11.6 289.8 11.6 C 289.85 11.56 285.6 11.6 285.6 11.6 C 285.6 11.6 285.64 21.64 285.6 21.6 C 285.6 23.6 286.4 24.2 287.8 24.2 C 288.6 24.2 289.3 24.1 289.8 23.9 C 290 23.9 290.1 24 290.1 24.2 C 290.1 24.2 290.1 26.5 290.1 26.5 C 290.1 26.6 290 26.7 289.9 26.8 C 289 27.1 287.9 27.3 286.9 27.3 C 284 27.3 281.3 25.9 281.3 21.7 Z M 291.6 6.2 C 291.6 6.2 291.6 2.7 291.6 2.7 C 291.6 2.5 291.7 2.4 291.9 2.4 C 291.9 2.4 295.7 2.4 295.7 2.4 C 295.9 2.4 296 2.5 296 2.7 C 296 2.7 296 6.2 296 6.2 C 296 6.4 295.9 6.5 295.7 6.5 C 295.7 6.5 291.9 6.5 291.9 6.5 C 291.7 6.5 291.6 6.4 291.6 6.2 Z M 291.6 26.7 C 291.56 26.71 291.6 17.6 291.6 17.6 C 291.6 17.6 291.56 8.75 291.6 8.7 C 291.6 8.6 291.7 8.5 291.8 8.5 C 291.8 8.5 295.7 8.5 295.7 8.5 C 295.9 8.5 296 8.6 296 8.7 C 295.97 8.75 295.9 17.6 295.9 17.6 C 295.9 17.6 295.97 26.71 296 26.7 C 296 26.9 295.9 27 295.7 27 C 295.7 27 291.8 27 291.8 27 C 291.7 27 291.6 26.9 291.6 26.7 Z M 297.6 17.8 C 297.6 11.9 300.9 8 306.8 8 C 312.6 8 315.9 11.8 315.9 17.7 C 315.9 23.6 312.6 27.4 306.8 27.4 C 300.9 27.4 297.6 23.6 297.6 17.8 Z M 311.4 17.8 C 311.4 13.3 309.9 10.9 306.7 10.9 C 303.5 11 302 13.4 302 17.8 C 302 22.2 303.6 24.5 306.8 24.5 C 309.9 24.5 311.4 22.3 311.4 17.8 Z M 317.4 26.7 C 317.35 26.71 317.4 18.3 317.4 18.3 C 317.4 18.3 317.41 8.75 317.4 8.7 C 317.4 8.6 317.5 8.5 317.7 8.5 C 317.7 8.5 321.3 8.5 321.3 8.5 C 321.5 8.5 321.6 8.6 321.6 8.8 C 321.6 8.8 321.5 11.3 321.5 11.3 C 322.7 9.5 324.8 8 327.6 8 C 331.4 8 333.9 10.6 333.9 15.3 C 333.93 15.32 333.9 19.1 333.9 19.1 C 333.9 19.1 334 26.71 334 26.7 C 334 26.9 333.9 27 333.7 27 C 333.7 27 329.9 27 329.9 27 C 329.7 27 329.6 26.9 329.6 26.7 C 329.61 26.71 329.7 19.1 329.7 19.1 C 329.7 19.1 329.68 15.43 329.7 15.4 C 329.7 12.7 328.3 11.3 326.3 11.3 C 324.1 11.3 322.1 13.1 321.7 16.9 C 321.73 16.92 321.7 19.1 321.7 19.1 C 321.7 19.1 321.8 26.71 321.8 26.7 C 321.8 26.9 321.7 27 321.5 27 C 321.5 27 317.6 27 317.6 27 C 317.5 27 317.4 26.9 317.4 26.7 Z M 335.3 21 C 335.3 20.8 335.4 20.7 335.6 20.7 C 335.6 20.7 339.2 20.7 339.2 20.7 C 339.4 20.7 339.5 20.8 339.5 21 C 339.6 23.5 341.2 24.7 344.1 24.7 C 346.5 24.7 348 23.7 348 21.9 C 348 17.6 335.7 21.3 335.7 13.7 C 335.7 10 338.7 8 343.4 8 C 348 8 351.2 9.9 351.5 13.7 C 351.5 13.9 351.4 14 351.2 14 C 351.2 14 347.8 14 347.8 14 C 347.6 14 347.5 13.9 347.4 13.8 C 347.2 11.8 345.8 10.7 343.4 10.7 C 341.2 10.7 339.8 11.6 339.8 13.4 C 339.8 17.5 352.1 13.7 352.1 21.5 C 352.1 25.3 348.6 27.4 343.9 27.4 C 338.7 27.4 335.4 25.3 335.3 21 Z M 353.6 26.7 C 353.6 26.71 353.7 14.3 353.7 14.3 C 353.7 14.3 353.6 2.09 353.6 2.1 C 353.6 1.9 353.7 1.8 353.9 1.8 C 353.9 1.8 357.6 1.8 357.6 1.8 C 357.8 1.8 357.9 1.9 357.9 2.1 C 357.9 2.1 357.8 11.1 357.8 11.1 C 359 9.3 361 8 363.6 8 C 367.7 8 370.2 10.5 370.1 15.9 C 370.11 15.86 370.1 19.7 370.1 19.7 C 370.1 19.7 370.18 26.71 370.2 26.7 C 370.2 26.9 370.1 27 369.9 27 C 369.9 27 366.1 27 366.1 27 C 365.9 27 365.8 26.9 365.8 26.7 C 365.77 26.71 365.8 19.7 365.8 19.7 C 365.8 19.7 365.84 15.43 365.8 15.4 C 365.8 12.5 364.4 11.2 362.5 11.2 C 360.5 11.2 358.6 12.8 357.8 15.6 C 357.8 15.6 357.9 26.7 357.9 26.7 C 357.9 26.9 357.8 27 357.6 27 C 357.6 27 353.9 27 353.9 27 C 353.7 27 353.6 26.9 353.6 26.7 Z M 372.1 6.2 C 372.1 6.2 372.1 2.7 372.1 2.7 C 372.1 2.5 372.2 2.4 372.4 2.4 C 372.4 2.4 376.2 2.4 376.2 2.4 C 376.4 2.4 376.5 2.5 376.5 2.7 C 376.5 2.7 376.5 6.2 376.5 6.2 C 376.5 6.4 376.4 6.5 376.2 6.5 C 376.2 6.5 372.4 6.5 372.4 6.5 C 372.2 6.5 372.1 6.4 372.1 6.2 Z M 372.1 26.7 C 372.11 26.71 372.2 17.6 372.2 17.6 C 372.2 17.6 372.11 8.75 372.1 8.7 C 372.1 8.6 372.2 8.5 372.4 8.5 C 372.4 8.5 376.2 8.5 376.2 8.5 C 376.4 8.5 376.5 8.6 376.5 8.7 C 376.52 8.75 376.4 17.6 376.4 17.6 C 376.4 17.6 376.52 26.71 376.5 26.7 C 376.5 26.9 376.4 27 376.2 27 C 376.2 27 372.4 27 372.4 27 C 372.2 27 372.1 26.9 372.1 26.7 Z M 378.6 32.8 C 378.61 32.83 378.7 19.2 378.7 19.2 C 378.7 19.2 378.61 8.75 378.6 8.7 C 378.6 8.6 378.7 8.5 378.9 8.5 C 378.9 8.5 382.7 8.5 382.7 8.5 C 382.9 8.5 383 8.6 383 8.8 C 383 8.8 382.9 11.1 382.9 11.1 C 384.1 9.2 386.1 8.1 388.6 8.1 C 393.7 8.1 396.4 12.3 396.4 17.7 C 396.4 23 393.5 27.4 388.5 27.4 C 386.1 27.4 384.2 26.4 382.9 24.6 C 382.9 24.6 383 32.8 383 32.8 C 383 33 382.9 33.1 382.7 33.1 C 382.7 33.1 378.9 33.1 378.9 33.1 C 378.7 33.1 378.6 33 378.6 32.8 Z M 392 17.9 C 392 13.7 390.5 11.1 387.4 11.1 C 384.5 11.1 382.8 13.3 382.8 17.6 C 382.7 21.9 384.4 24.4 387.3 24.4 C 390.5 24.4 392 21.9 392 17.9 Z M 397.4 21 C 397.4 20.8 397.5 20.7 397.7 20.7 C 397.7 20.7 401.3 20.7 401.3 20.7 C 401.5 20.7 401.6 20.8 401.6 21 C 401.7 23.5 403.3 24.7 406.2 24.7 C 408.6 24.7 410.1 23.7 410.1 21.9 C 410.1 17.6 397.8 21.3 397.8 13.7 C 397.8 10 400.8 8 405.5 8 C 410.1 8 413.3 9.9 413.6 13.7 C 413.6 13.9 413.5 14 413.3 14 C 413.3 14 409.9 14 409.9 14 C 409.7 14 409.6 13.9 409.6 13.8 C 409.3 11.8 407.9 10.7 405.5 10.7 C 403.3 10.7 402 11.6 402 13.4 C 402 17.5 414.3 13.7 414.3 21.5 C 414.3 25.3 410.8 27.4 406 27.4 C 400.8 27.4 397.5 25.3 397.4 21 Z " stroke="none" fill="#253885"/>  </g></svg>