<?xml version="1.0" standalone="no"?><!DOCTYPE svg PUBLIC "-//W3C//DTD SVG 1.1//EN" "http://www.w3.org/Graphics/SVG/1.1/DTD/svg11.dtd"><svg xmlns="http://www.w3.org/2000/svg" version="1.1" width="187.1px" height="47.5px" viewBox="0 -1 187.1 47.5" style="top:-1px">  <desc>Pre Work</desc>  <defs/>  <g id="Polygon41330">    <path d="M 49.9 27.9 C 49.9 27.88 50 20.4 50 20.4 C 50 20.4 49.9 12.89 49.9 12.9 C 49.9 12.8 50 12.7 50.1 12.7 C 50.1 12.7 55.9 12.7 55.9 12.7 C 59.6 12.7 61.7 14.4 61.7 17.6 C 61.7 20.9 59.5 22.7 55.9 22.7 C 55.87 22.75 53.3 22.7 53.3 22.7 C 53.3 22.7 53.31 27.88 53.3 27.9 C 53.3 28 53.2 28.1 53.1 28.1 C 53.1 28.1 50.1 28.1 50.1 28.1 C 50 28.1 49.9 28 49.9 27.9 Z M 56.1 20.3 C 57.4 20.3 58.5 19.6 58.5 17.7 C 58.5 15.9 57.6 15.1 56 15.1 C 56.03 15.13 53.3 15.1 53.3 15.1 L 53.2 20.3 C 53.2 20.3 56.12 20.3 56.1 20.3 Z M 62.4 27.9 C 62.43 27.88 62.5 22.4 62.5 22.4 C 62.5 22.4 62.43 16.96 62.4 17 C 62.4 16.8 62.5 16.8 62.6 16.8 C 62.6 16.8 65.5 16.8 65.5 16.8 C 65.6 16.8 65.7 16.8 65.7 17 C 65.7 17 65.6 18.7 65.6 18.7 C 66.5 17.3 68 16.7 69.7 16.7 C 69.9 16.7 70 16.7 70.2 16.7 C 70.3 16.8 70.4 16.8 70.4 16.9 C 70.4 16.9 70.4 19 70.4 19 C 70.4 19.1 70.3 19.2 70.2 19.2 C 70 19.2 69.9 19.2 69.8 19.2 C 67.4 19.2 65.7 20.5 65.7 23.1 C 65.7 23.1 65.7 27.9 65.7 27.9 C 65.7 28 65.7 28.1 65.5 28.1 C 65.5 28.1 62.6 28.1 62.6 28.1 C 62.5 28.1 62.4 28 62.4 27.9 Z M 70.2 22.5 C 70.2 18.9 72.3 16.5 75.9 16.5 C 79.7 16.5 81.7 18.9 81.8 22.9 C 81.8 23 81.7 23.1 81.6 23.1 C 81.6 23.1 73.5 23.1 73.5 23.1 C 73.6 25.2 74.5 26.2 76 26.2 C 77.2 26.2 77.9 25.7 78.2 24.6 C 78.3 24.4 78.3 24.4 78.5 24.4 C 78.5 24.4 81.2 24.4 81.2 24.4 C 81.4 24.4 81.5 24.4 81.4 24.5 C 81.2 26.6 79.2 28.4 76 28.4 C 72.2 28.4 70.2 25.9 70.2 22.5 Z M 78.2 21 C 78.1 19.8 77.4 18.7 76 18.7 C 74.6 18.7 73.9 19.4 73.6 21 C 73.6 21 78.2 21 78.2 21 Z M 82.2 22.8 C 82.2 22.8 82.2 20.9 82.2 20.9 C 82.2 20.8 82.3 20.7 82.4 20.7 C 82.4 20.7 88.1 20.7 88.1 20.7 C 88.2 20.7 88.3 20.8 88.3 20.9 C 88.3 20.9 88.3 22.8 88.3 22.8 C 88.3 22.9 88.2 23 88.1 23 C 88.1 23 82.4 23 82.4 23 C 82.3 23 82.2 22.9 82.2 22.8 Z M 87.5 12.7 C 87.5 12.7 90.5 12.7 90.5 12.7 C 90.6 12.7 90.7 12.7 90.7 12.9 C 90.74 12.87 92.5 21 92.5 21 L 93.2 24.3 L 93.8 20.9 C 93.8 20.9 95.49 12.87 95.5 12.9 C 95.5 12.7 95.6 12.7 95.7 12.7 C 95.7 12.7 99.2 12.7 99.2 12.7 C 99.3 12.7 99.4 12.7 99.5 12.9 C 99.46 12.87 101.2 21 101.2 21 L 101.9 24.5 L 102.6 20.9 C 102.6 20.9 104.31 12.87 104.3 12.9 C 104.3 12.7 104.4 12.7 104.5 12.7 C 104.5 12.7 107.3 12.7 107.3 12.7 C 107.4 12.7 107.5 12.8 107.5 12.9 C 107.5 12.9 103.9 27.9 103.9 27.9 C 103.8 28 103.8 28.1 103.7 28.1 C 103.7 28.1 100 28.1 100 28.1 C 99.9 28.1 99.8 28 99.8 27.9 C 99.75 27.92 98 20.1 98 20.1 L 97.3 17.3 L 96.7 20.1 C 96.7 20.1 95.1 27.92 95.1 27.9 C 95.1 28 95 28.1 94.9 28.1 C 94.9 28.1 91.1 28.1 91.1 28.1 C 91 28.1 90.9 28 90.9 27.9 C 90.9 27.9 87.3 12.9 87.3 12.9 C 87.3 12.8 87.4 12.7 87.5 12.7 Z M 106.4 22.5 C 106.4 18.9 108.5 16.5 112.2 16.5 C 115.9 16.5 118 18.8 118 22.4 C 118 26 115.9 28.4 112.2 28.4 C 108.5 28.4 106.4 26.1 106.4 22.5 Z M 114.6 22.5 C 114.6 19.9 113.8 18.7 112.2 18.7 C 110.5 18.7 109.8 19.9 109.8 22.5 C 109.8 25 110.6 26.2 112.2 26.2 C 113.9 26.2 114.6 25.1 114.6 22.5 Z M 118.8 27.9 C 118.78 27.88 118.9 22.4 118.9 22.4 C 118.9 22.4 118.78 16.96 118.8 17 C 118.8 16.8 118.9 16.8 119 16.8 C 119 16.8 121.9 16.8 121.9 16.8 C 122 16.8 122.1 16.8 122.1 17 C 122.1 17 122 18.7 122 18.7 C 122.9 17.3 124.4 16.7 126 16.7 C 126.2 16.7 126.4 16.7 126.6 16.7 C 126.7 16.8 126.7 16.8 126.7 16.9 C 126.7 16.9 126.7 19 126.7 19 C 126.7 19.1 126.7 19.2 126.5 19.2 C 126.4 19.2 126.2 19.2 126.1 19.2 C 123.8 19.2 122.1 20.5 122.1 23.1 C 122.1 23.1 122.1 27.9 122.1 27.9 C 122.1 28 122 28.1 121.9 28.1 C 121.9 28.1 119 28.1 119 28.1 C 118.9 28.1 118.8 28 118.8 27.9 Z M 127.3 27.9 C 127.31 27.88 127.4 20.4 127.4 20.4 C 127.4 20.4 127.31 12.89 127.3 12.9 C 127.3 12.8 127.4 12.7 127.5 12.7 C 127.5 12.7 130.4 12.7 130.4 12.7 C 130.5 12.7 130.6 12.8 130.6 12.9 C 130.59 12.89 130.5 21 130.5 21 C 130.5 21 133.82 16.87 133.8 16.9 C 133.9 16.8 134 16.8 134.1 16.8 C 134.1 16.8 137.2 16.8 137.2 16.8 C 137.4 16.8 137.4 16.9 137.3 17 C 137.32 17.02 133.9 20.8 133.9 20.8 C 133.9 20.8 137.96 27.85 138 27.9 C 138 28 138 28.1 137.8 28.1 C 137.8 28.1 134.4 28.1 134.4 28.1 C 134.3 28.1 134.2 28 134.2 27.9 C 134.19 27.95 133 25.7 133 25.7 L 131.6 23.2 L 130.6 24.6 C 130.6 24.6 130.59 27.88 130.6 27.9 C 130.6 28 130.5 28.1 130.4 28.1 C 130.4 28.1 127.5 28.1 127.5 28.1 C 127.4 28.1 127.3 28 127.3 27.9 Z " stroke="none" fill="#ffffff"/>  </g></svg>