<?xml version="1.0" standalone="no"?><!DOCTYPE svg PUBLIC "-//W3C//DTD SVG 1.1//EN" "http://www.w3.org/Graphics/SVG/1.1/DTD/svg11.dtd"><svg xmlns="http://www.w3.org/2000/svg" version="1.1" width="237px" height="81px" viewBox="0 -8 237 81" style="top:-8px">  <desc>52% believe people are rewarded for results, not for how results are achieved.</desc>  <defs/>  <g id="Polygon40047">    <path d="M 20.4 62.9 C 20.35 62.85 20.4 55.9 20.4 55.9 C 20.4 55.9 20.35 49.14 20.4 49.1 C 20.4 49 20.4 49 20.5 49 C 20.5 49 22 49 22 49 C 22.1 49 22.2 49 22.2 49.1 C 22.2 49.1 22.1 54.4 22.1 54.4 C 22.8 53.4 23.9 52.5 25.5 52.5 C 27.7 52.5 29 53.8 29 56.8 C 28.98 56.76 29 58.8 29 58.8 C 29 58.8 29.01 62.85 29 62.9 C 29 63 29 63 28.9 63 C 28.9 63 27.3 63 27.3 63 C 27.2 63 27.1 63 27.1 62.9 C 27.14 62.85 27.2 58.8 27.2 58.8 C 27.2 58.8 27.18 56.63 27.2 56.6 C 27.2 54.6 26.3 53.8 25 53.8 C 23.7 53.8 22.7 54.8 22.1 56.5 C 22.1 56.5 22.2 62.9 22.2 62.9 C 22.2 63 22.1 63 22 63 C 22 63 20.5 63 20.5 63 C 20.4 63 20.4 63 20.4 62.9 Z M 29.8 57.9 C 29.8 54.6 31.6 52.5 34.7 52.5 C 37.9 52.5 39.6 54.6 39.6 57.8 C 39.6 61.1 37.9 63.2 34.7 63.2 C 31.6 63.2 29.8 61.1 29.8 57.9 Z M 37.7 57.9 C 37.7 55.3 36.7 53.7 34.7 53.7 C 32.7 53.8 31.7 55.3 31.7 57.9 C 31.7 60.5 32.7 62 34.7 62 C 36.8 62 37.7 60.5 37.7 57.9 Z M 39.7 52.7 C 39.7 52.7 41.3 52.7 41.3 52.7 C 41.3 52.7 41.4 52.8 41.4 52.8 C 41.42 52.83 42.9 59 42.9 59 L 43.4 61.4 L 44 59 C 44 59 45.41 52.83 45.4 52.8 C 45.4 52.8 45.5 52.7 45.6 52.7 C 45.6 52.7 47.5 52.7 47.5 52.7 C 47.6 52.7 47.6 52.8 47.7 52.8 C 47.66 52.83 49.2 59 49.2 59 L 49.7 61.3 L 50.2 59 C 50.2 59 51.66 52.83 51.7 52.8 C 51.7 52.8 51.7 52.7 51.8 52.7 C 51.8 52.7 53.2 52.7 53.2 52.7 C 53.3 52.7 53.4 52.8 53.3 52.9 C 53.3 52.9 50.8 62.9 50.8 62.9 C 50.8 63 50.7 63 50.6 63 C 50.6 63 48.8 63 48.8 63 C 48.7 63 48.6 63 48.6 62.9 C 48.6 62.87 47 56.7 47 56.7 L 46.4 54.3 L 45.9 56.7 C 45.9 56.7 44.45 62.87 44.5 62.9 C 44.4 63 44.4 63 44.3 63 C 44.3 63 42.4 63 42.4 63 C 42.4 63 42.3 63 42.3 62.9 C 42.3 62.9 39.6 52.9 39.6 52.9 C 39.6 52.8 39.6 52.7 39.7 52.7 Z M 56.8 62.9 C 56.79 62.85 56.9 57.7 56.9 57.7 C 56.9 57.7 56.79 52.85 56.8 52.9 C 56.8 52.8 56.9 52.7 56.9 52.7 C 56.9 52.7 58.5 52.7 58.5 52.7 C 58.6 52.7 58.6 52.8 58.6 52.9 C 58.6 52.9 58.6 54.6 58.6 54.6 C 59.3 53.3 60.6 52.6 62.1 52.6 C 62.3 52.6 62.5 52.6 62.7 52.7 C 62.8 52.7 62.8 52.8 62.8 52.8 C 62.8 52.8 62.8 53.9 62.8 53.9 C 62.8 54 62.8 54.1 62.7 54.1 C 62.5 54 62.3 54 62.1 54 C 60.3 54 58.8 55.1 58.6 57.4 C 58.6 57.4 58.6 62.9 58.6 62.9 C 58.6 63 58.6 63 58.5 63 C 58.5 63 56.9 63 56.9 63 C 56.9 63 56.8 63 56.8 62.9 Z M 62.4 57.9 C 62.4 54.7 64.2 52.5 67.2 52.5 C 70.2 52.5 72 54.5 72 57.9 C 72 58 72 58.1 71.9 58.1 C 71.9 58.1 64.3 58.1 64.3 58.1 C 64.3 60.8 65.5 62 67.4 62 C 68.9 62 69.8 61.1 70.1 59.7 C 70.1 59.6 70.2 59.5 70.2 59.5 C 70.2 59.5 71.7 59.5 71.7 59.5 C 71.8 59.5 71.9 59.6 71.9 59.6 C 71.6 61.7 70 63.2 67.3 63.2 C 64.1 63.2 62.4 61 62.4 57.9 Z M 70.1 56.8 C 70 55.1 69.1 53.7 67.3 53.7 C 65.5 53.7 64.6 54.9 64.3 56.8 C 64.3 56.8 70.1 56.8 70.1 56.8 Z M 72.5 59.6 C 72.5 59.5 72.6 59.5 72.7 59.5 C 72.7 59.5 74.1 59.5 74.1 59.5 C 74.2 59.5 74.3 59.5 74.3 59.6 C 74.3 61.3 75.3 62 77.2 62 C 78.7 62 79.7 61.4 79.7 60.2 C 79.7 57.4 72.7 59.6 72.7 55.5 C 72.7 53.5 74.4 52.5 76.8 52.5 C 79.2 52.5 81 53.5 81.1 55.6 C 81.1 55.7 81.1 55.8 81 55.8 C 81 55.8 79.5 55.8 79.5 55.8 C 79.5 55.8 79.4 55.7 79.4 55.6 C 79.3 54.3 78.3 53.7 76.8 53.7 C 75.4 53.7 74.5 54.2 74.5 55.4 C 74.5 58 81.4 55.7 81.4 60.1 C 81.4 62.1 79.6 63.2 77.1 63.2 C 74.3 63.2 72.6 62 72.5 59.6 Z M 82.3 59.1 C 82.28 59.14 82.3 57.1 82.3 57.1 C 82.3 57.1 82.25 52.85 82.3 52.9 C 82.3 52.8 82.3 52.7 82.4 52.7 C 82.4 52.7 84 52.7 84 52.7 C 84.1 52.7 84.1 52.8 84.1 52.9 C 84.11 52.85 84.1 57.1 84.1 57.1 C 84.1 57.1 84.07 59.07 84.1 59.1 C 84.1 61 85 61.9 86.2 61.9 C 87.6 61.9 88.7 60.8 89.1 58.8 C 89.08 58.75 89.1 57.1 89.1 57.1 C 89.1 57.1 89.05 52.85 89.1 52.9 C 89.1 52.8 89.1 52.7 89.2 52.7 C 89.2 52.7 90.8 52.7 90.8 52.7 C 90.9 52.7 90.9 52.8 90.9 52.9 C 90.93 52.85 90.9 57.4 90.9 57.4 C 90.9 57.4 90.91 62.85 90.9 62.9 C 90.9 63 90.9 63 90.8 63 C 90.8 63 89.3 63 89.3 63 C 89.2 63 89.1 63 89.1 62.9 C 89.1 62.9 89.2 61.2 89.2 61.2 C 88.5 62.3 87.4 63.2 85.7 63.2 C 83.6 63.2 82.3 61.9 82.3 59.1 Z M 92.3 62.9 C 92.27 62.85 92.3 55.9 92.3 55.9 C 92.3 55.9 92.27 49.15 92.3 49.2 C 92.3 49.1 92.3 49 92.4 49 C 92.4 49 94 49 94 49 C 94.1 49 94.1 49.1 94.1 49.2 C 94.1 49.15 94 55.9 94 55.9 C 94 55.9 94.1 62.85 94.1 62.9 C 94.1 63 94.1 63 94 63 C 94 63 92.4 63 92.4 63 C 92.3 63 92.3 63 92.3 62.9 Z M 96.3 60.2 C 96.32 60.18 96.3 54 96.3 54 C 96.3 54 95.15 54.04 95.2 54 C 95.1 54 95 54 95 53.9 C 95 53.9 95 52.9 95 52.9 C 95 52.8 95.1 52.7 95.2 52.7 C 95.15 52.7 96.3 52.7 96.3 52.7 C 96.3 52.7 96.31 50.27 96.3 50.3 C 96.3 50.2 96.4 50.1 96.5 50.1 C 96.5 50.1 98 50.1 98 50.1 C 98.1 50.1 98.2 50.2 98.2 50.3 C 98.16 50.27 98.1 52.7 98.1 52.7 C 98.1 52.7 100.54 52.7 100.5 52.7 C 100.6 52.7 100.7 52.8 100.7 52.9 C 100.7 52.9 100.7 53.9 100.7 53.9 C 100.7 54 100.6 54 100.5 54 C 100.54 54.04 98.1 54 98.1 54 C 98.1 54 98.14 60.14 98.1 60.1 C 98.1 61.4 98.6 61.8 99.4 61.8 C 99.8 61.8 100.2 61.8 100.5 61.7 C 100.6 61.6 100.7 61.7 100.7 61.8 C 100.7 61.8 100.7 62.8 100.7 62.8 C 100.7 62.9 100.6 62.9 100.6 62.9 C 100.1 63 99.6 63.2 99.1 63.2 C 97.6 63.2 96.3 62.4 96.3 60.2 Z M 101.1 59.6 C 101.1 59.5 101.1 59.5 101.2 59.5 C 101.2 59.5 102.7 59.5 102.7 59.5 C 102.8 59.5 102.8 59.5 102.8 59.6 C 102.9 61.3 103.9 62 105.7 62 C 107.2 62 108.2 61.4 108.2 60.2 C 108.2 57.4 101.3 59.6 101.3 55.5 C 101.3 53.5 102.9 52.5 105.4 52.5 C 107.8 52.5 109.5 53.5 109.6 55.6 C 109.7 55.7 109.6 55.8 109.5 55.8 C 109.5 55.8 108.1 55.8 108.1 55.8 C 108 55.8 107.9 55.7 107.9 55.6 C 107.8 54.3 106.8 53.7 105.3 53.7 C 103.9 53.7 103 54.2 103 55.4 C 103 58 110 55.7 110 60.1 C 110 62.1 108.1 63.2 105.6 63.2 C 102.9 63.2 101.1 62 101.1 59.6 Z M 113.4 57.9 C 113.4 54.9 115 52.5 117.7 52.5 C 119.2 52.5 120.3 53.2 121 54.4 C 121 54.4 120.9 52.9 120.9 52.9 C 120.9 52.8 121 52.7 121.1 52.7 C 121.1 52.7 122.6 52.7 122.6 52.7 C 122.7 52.7 122.8 52.8 122.8 52.9 C 122.77 52.85 122.7 57.7 122.7 57.7 C 122.7 57.7 122.77 62.85 122.8 62.9 C 122.8 63 122.7 63 122.6 63 C 122.6 63 121.1 63 121.1 63 C 121 63 120.9 63 120.9 62.9 C 120.9 62.9 121 61.3 121 61.3 C 120.3 62.5 119.2 63.2 117.7 63.2 C 114.9 63.2 113.4 60.9 113.4 57.9 Z M 121 57.9 C 121 55.3 120 53.8 118.2 53.8 C 116.2 53.8 115.3 55.4 115.3 57.7 C 115.3 60.2 116.2 61.9 118.2 61.9 C 119.9 61.9 121 60.6 121 57.9 Z M 124 62.9 C 124.01 62.85 124.1 57.7 124.1 57.7 C 124.1 57.7 124.01 52.85 124 52.9 C 124 52.8 124.1 52.7 124.2 52.7 C 124.2 52.7 125.7 52.7 125.7 52.7 C 125.8 52.7 125.8 52.8 125.8 52.9 C 125.8 52.9 125.8 54.6 125.8 54.6 C 126.5 53.3 127.8 52.6 129.3 52.6 C 129.5 52.6 129.7 52.6 129.9 52.7 C 130 52.7 130.1 52.8 130.1 52.8 C 130.1 52.8 130.1 53.9 130.1 53.9 C 130.1 54 130 54.1 129.9 54.1 C 129.7 54 129.5 54 129.3 54 C 127.5 54 126 55.1 125.8 57.4 C 125.8 57.4 125.9 62.9 125.9 62.9 C 125.9 63 125.8 63 125.7 63 C 125.7 63 124.2 63 124.2 63 C 124.1 63 124 63 124 62.9 Z M 129.6 57.9 C 129.6 54.7 131.5 52.5 134.5 52.5 C 137.5 52.5 139.2 54.5 139.3 57.9 C 139.3 58 139.2 58.1 139.1 58.1 C 139.1 58.1 131.5 58.1 131.5 58.1 C 131.5 60.8 132.7 62 134.6 62 C 136.1 62 137 61.1 137.3 59.7 C 137.3 59.6 137.4 59.5 137.5 59.5 C 137.5 59.5 138.9 59.5 138.9 59.5 C 139 59.5 139.1 59.6 139.1 59.6 C 138.8 61.7 137.2 63.2 134.6 63.2 C 131.3 63.2 129.6 61 129.6 57.9 Z M 137.3 56.8 C 137.2 55.1 136.3 53.7 134.5 53.7 C 132.8 53.7 131.8 54.9 131.5 56.8 C 131.5 56.8 137.3 56.8 137.3 56.8 Z M 142.6 57.9 C 142.6 54.9 144.1 52.5 146.8 52.5 C 148.3 52.5 149.4 53.2 150.1 54.4 C 150.1 54.4 150.1 52.9 150.1 52.9 C 150.1 52.8 150.1 52.7 150.2 52.7 C 150.2 52.7 151.8 52.7 151.8 52.7 C 151.8 52.7 151.9 52.8 151.9 52.9 C 151.9 52.85 151.9 57.7 151.9 57.7 C 151.9 57.7 151.9 62.85 151.9 62.9 C 151.9 63 151.8 63 151.8 63 C 151.8 63 150.2 63 150.2 63 C 150.1 63 150.1 63 150.1 62.9 C 150.1 62.9 150.1 61.3 150.1 61.3 C 149.4 62.5 148.3 63.2 146.8 63.2 C 144 63.2 142.6 60.9 142.6 57.9 Z M 150.2 57.9 C 150.2 55.3 149.1 53.8 147.3 53.8 C 145.3 53.8 144.4 55.4 144.4 57.7 C 144.4 60.2 145.3 61.9 147.3 61.9 C 149 61.9 150.1 60.6 150.2 57.9 Z M 152.8 57.9 C 152.8 54.6 154.6 52.5 157.7 52.5 C 160.2 52.5 161.8 53.9 162 56.1 C 162 56.2 162 56.2 161.9 56.2 C 161.9 56.2 160.5 56.2 160.5 56.2 C 160.4 56.2 160.3 56.2 160.3 56.1 C 160.1 54.5 159 53.8 157.7 53.8 C 155.7 53.8 154.7 55.3 154.7 57.9 C 154.7 60.5 155.7 62 157.7 62 C 159.2 62 160.3 61.1 160.4 59.3 C 160.5 59.2 160.5 59.2 160.6 59.2 C 160.6 59.2 162 59.2 162 59.2 C 162.1 59.2 162.2 59.2 162.2 59.3 C 162 61.6 160.3 63.2 157.7 63.2 C 154.6 63.2 152.8 61.1 152.8 57.9 Z M 163 62.9 C 162.99 62.85 163.1 55.9 163.1 55.9 C 163.1 55.9 162.99 49.14 163 49.1 C 163 49 163.1 49 163.1 49 C 163.1 49 164.7 49 164.7 49 C 164.8 49 164.8 49 164.8 49.1 C 164.8 49.1 164.8 54.4 164.8 54.4 C 165.4 53.4 166.5 52.5 168.1 52.5 C 170.3 52.5 171.7 53.8 171.6 56.8 C 171.62 56.76 171.6 58.8 171.6 58.8 C 171.6 58.8 171.65 62.85 171.7 62.9 C 171.7 63 171.6 63 171.5 63 C 171.5 63 169.9 63 169.9 63 C 169.8 63 169.8 63 169.8 62.9 C 169.78 62.85 169.8 58.8 169.8 58.8 C 169.8 58.8 169.82 56.63 169.8 56.6 C 169.8 54.6 168.9 53.8 167.7 53.8 C 166.4 53.8 165.3 54.8 164.8 56.5 C 164.8 56.5 164.8 62.9 164.8 62.9 C 164.8 63 164.8 63 164.7 63 C 164.7 63 163.1 63 163.1 63 C 163.1 63 163 63 163 62.9 Z M 172.9 51.4 C 172.9 51.4 172.9 49.8 172.9 49.8 C 172.9 49.7 173 49.6 173 49.6 C 173 49.6 174.6 49.6 174.6 49.6 C 174.7 49.6 174.8 49.7 174.8 49.8 C 174.8 49.8 174.8 51.4 174.8 51.4 C 174.8 51.5 174.7 51.6 174.6 51.6 C 174.6 51.6 173 51.6 173 51.6 C 172.9 51.6 172.9 51.5 172.9 51.4 Z M 172.9 62.9 C 172.88 62.85 172.9 57.7 172.9 57.7 C 172.9 57.7 172.88 52.85 172.9 52.9 C 172.9 52.8 172.9 52.7 173 52.7 C 173 52.7 174.6 52.7 174.6 52.7 C 174.7 52.7 174.7 52.8 174.7 52.9 C 174.74 52.85 174.7 57.7 174.7 57.7 C 174.7 57.7 174.74 62.85 174.7 62.9 C 174.7 63 174.7 63 174.6 63 C 174.6 63 173 63 173 63 C 172.9 63 172.9 63 172.9 62.9 Z M 175.8 57.9 C 175.8 54.7 177.6 52.5 180.6 52.5 C 183.6 52.5 185.3 54.5 185.4 57.9 C 185.4 58 185.3 58.1 185.2 58.1 C 185.2 58.1 177.6 58.1 177.6 58.1 C 177.6 60.8 178.8 62 180.7 62 C 182.2 62 183.1 61.1 183.4 59.7 C 183.5 59.6 183.5 59.5 183.6 59.5 C 183.6 59.5 185.1 59.5 185.1 59.5 C 185.2 59.5 185.2 59.6 185.2 59.6 C 184.9 61.7 183.3 63.2 180.7 63.2 C 177.5 63.2 175.8 61 175.8 57.9 Z M 183.4 56.8 C 183.3 55.1 182.4 53.7 180.6 53.7 C 178.9 53.7 177.9 54.9 177.7 56.8 C 177.7 56.8 183.4 56.8 183.4 56.8 Z M 185.2 52.7 C 185.2 52.7 186.9 52.7 186.9 52.7 C 187 52.7 187 52.7 187 52.8 C 187.04 52.82 189.3 59.4 189.3 59.4 L 190 61.4 L 190.7 59.4 C 190.7 59.4 192.94 52.82 192.9 52.8 C 193 52.7 193 52.7 193.1 52.7 C 193.1 52.7 194.6 52.7 194.6 52.7 C 194.7 52.7 194.7 52.8 194.7 52.9 C 194.7 52.9 191 62.9 191 62.9 C 191 63 191 63 190.9 63 C 190.9 63 188.9 63 188.9 63 C 188.9 63 188.8 63 188.8 62.9 C 188.8 62.9 185.1 52.9 185.1 52.9 C 185 52.8 185.1 52.7 185.2 52.7 Z M 194.4 57.9 C 194.4 54.7 196.2 52.5 199.2 52.5 C 202.2 52.5 204 54.5 204 57.9 C 204 58 204 58.1 203.9 58.1 C 203.9 58.1 196.3 58.1 196.3 58.1 C 196.3 60.8 197.4 62 199.4 62 C 200.9 62 201.8 61.1 202.1 59.7 C 202.1 59.6 202.2 59.5 202.2 59.5 C 202.2 59.5 203.7 59.5 203.7 59.5 C 203.8 59.5 203.9 59.6 203.9 59.6 C 203.6 61.7 202 63.2 199.3 63.2 C 196.1 63.2 194.4 61 194.4 57.9 Z M 202.1 56.8 C 202 55.1 201.1 53.7 199.2 53.7 C 197.5 53.7 196.5 54.9 196.3 56.8 C 196.3 56.8 202.1 56.8 202.1 56.8 Z M 204.8 57.9 C 204.8 54.9 206.3 52.5 209.1 52.5 C 210.5 52.5 211.6 53.1 212.3 54.3 C 212.3 54.3 212.3 49.2 212.3 49.2 C 212.3 49.1 212.3 49 212.4 49 C 212.4 49 214 49 214 49 C 214.1 49 214.1 49.1 214.1 49.2 C 214.11 49.15 214.1 55.2 214.1 55.2 C 214.1 55.2 214.11 62.86 214.1 62.9 C 214.1 63 214.1 63 214 63 C 214 63 212.4 63 212.4 63 C 212.3 63 212.3 63 212.3 62.9 C 212.3 62.9 212.3 61.3 212.3 61.3 C 211.6 62.5 210.5 63.2 209 63.2 C 206.2 63.2 204.8 60.9 204.8 57.9 Z M 212.4 58 C 212.4 55.3 211.3 53.8 209.5 53.7 C 207.6 53.7 206.6 55.4 206.6 57.8 C 206.6 60.2 207.6 62 209.5 61.9 C 211.3 61.9 212.3 60.6 212.4 58 Z M 215.1 62.9 C 215.1 62.9 215.1 61.1 215.1 61.1 C 215.1 61 215.2 61 215.3 61 C 215.3 61 217 61 217 61 C 217.1 61 217.2 61 217.2 61.1 C 217.2 61.1 217.2 62.9 217.2 62.9 C 217.2 63 217.1 63 217 63 C 217 63 215.3 63 215.3 63 C 215.2 63 215.1 62.9 215.1 62.9 Z " stroke="none" fill="#000"/>  </g>  <g id="Polygon40046">    <path d="M 11.4 38.9 C 11.43 38.85 11.5 33.7 11.5 33.7 C 11.5 33.7 11.43 28.85 11.4 28.9 C 11.4 28.8 11.5 28.7 11.6 28.7 C 11.6 28.7 13.1 28.7 13.1 28.7 C 13.2 28.7 13.3 28.8 13.3 28.9 C 13.3 28.9 13.2 30.6 13.2 30.6 C 13.9 29.3 15.3 28.6 16.7 28.6 C 16.9 28.6 17.2 28.6 17.3 28.7 C 17.4 28.7 17.5 28.8 17.5 28.8 C 17.5 28.8 17.5 29.9 17.5 29.9 C 17.5 30 17.4 30.1 17.3 30.1 C 17.1 30 16.9 30 16.7 30 C 15 30 13.4 31.1 13.3 33.4 C 13.3 33.4 13.3 38.9 13.3 38.9 C 13.3 39 13.2 39 13.1 39 C 13.1 39 11.6 39 11.6 39 C 11.5 39 11.4 39 11.4 38.9 Z M 17.1 33.9 C 17.1 30.7 18.9 28.5 21.9 28.5 C 24.9 28.5 26.6 30.5 26.7 33.9 C 26.7 34 26.6 34.1 26.5 34.1 C 26.5 34.1 18.9 34.1 18.9 34.1 C 18.9 36.8 20.1 38 22 38 C 23.5 38 24.4 37.1 24.7 35.7 C 24.8 35.6 24.8 35.5 24.9 35.5 C 24.9 35.5 26.4 35.5 26.4 35.5 C 26.5 35.5 26.5 35.6 26.5 35.6 C 26.2 37.7 24.6 39.2 22 39.2 C 18.8 39.2 17.1 37 17.1 33.9 Z M 24.7 32.8 C 24.6 31.1 23.7 29.7 21.9 29.7 C 20.2 29.7 19.2 30.9 19 32.8 C 19 32.8 24.7 32.8 24.7 32.8 Z M 26.8 28.7 C 26.8 28.7 28.3 28.7 28.3 28.7 C 28.4 28.7 28.4 28.8 28.5 28.8 C 28.46 28.83 29.9 35 29.9 35 L 30.5 37.4 L 31 35 C 31 35 32.45 28.83 32.5 28.8 C 32.5 28.8 32.5 28.7 32.6 28.7 C 32.6 28.7 34.5 28.7 34.5 28.7 C 34.6 28.7 34.7 28.8 34.7 28.8 C 34.7 28.83 36.2 35 36.2 35 L 36.8 37.3 L 37.3 35 C 37.3 35 38.7 28.83 38.7 28.8 C 38.7 28.8 38.8 28.7 38.9 28.7 C 38.9 28.7 40.3 28.7 40.3 28.7 C 40.4 28.7 40.4 28.8 40.4 28.9 C 40.4 28.9 37.8 38.9 37.8 38.9 C 37.8 39 37.8 39 37.7 39 C 37.7 39 35.8 39 35.8 39 C 35.7 39 35.7 39 35.6 38.9 C 35.64 38.87 34.1 32.7 34.1 32.7 L 33.5 30.3 L 32.9 32.7 C 32.9 32.7 31.49 38.87 31.5 38.9 C 31.5 39 31.4 39 31.3 39 C 31.3 39 29.5 39 29.5 39 C 29.4 39 29.3 39 29.3 38.9 C 29.3 38.9 26.6 28.9 26.6 28.9 C 26.6 28.8 26.7 28.7 26.8 28.7 Z M 40.4 33.9 C 40.4 30.9 41.9 28.5 44.6 28.5 C 46.1 28.5 47.2 29.2 47.9 30.4 C 47.9 30.4 47.9 28.9 47.9 28.9 C 47.9 28.8 47.9 28.7 48 28.7 C 48 28.7 49.6 28.7 49.6 28.7 C 49.6 28.7 49.7 28.8 49.7 28.9 C 49.71 28.85 49.7 33.7 49.7 33.7 C 49.7 33.7 49.71 38.85 49.7 38.9 C 49.7 39 49.6 39 49.6 39 C 49.6 39 48 39 48 39 C 47.9 39 47.9 39 47.9 38.9 C 47.9 38.9 47.9 37.3 47.9 37.3 C 47.2 38.5 46.1 39.2 44.6 39.2 C 41.8 39.2 40.4 36.9 40.4 33.9 Z M 48 33.9 C 48 31.3 46.9 29.8 45.1 29.8 C 43.1 29.8 42.2 31.4 42.2 33.7 C 42.2 36.2 43.1 37.9 45.1 37.9 C 46.8 37.9 47.9 36.6 48 33.9 Z M 50.9 38.9 C 50.94 38.85 51 33.7 51 33.7 C 51 33.7 50.94 28.85 50.9 28.9 C 50.9 28.8 51 28.7 51.1 28.7 C 51.1 28.7 52.6 28.7 52.6 28.7 C 52.7 28.7 52.8 28.8 52.8 28.9 C 52.8 28.9 52.7 30.6 52.7 30.6 C 53.4 29.3 54.8 28.6 56.2 28.6 C 56.4 28.6 56.7 28.6 56.9 28.7 C 56.9 28.7 57 28.8 57 28.8 C 57 28.8 57 29.9 57 29.9 C 57 30 56.9 30.1 56.8 30.1 C 56.7 30 56.5 30 56.2 30 C 54.5 30 52.9 31.1 52.8 33.4 C 52.8 33.4 52.8 38.9 52.8 38.9 C 52.8 39 52.7 39 52.6 39 C 52.6 39 51.1 39 51.1 39 C 51 39 50.9 39 50.9 38.9 Z M 56.6 33.9 C 56.6 30.9 58.1 28.5 60.9 28.5 C 62.3 28.5 63.4 29.1 64.1 30.3 C 64.1 30.3 64.1 25.2 64.1 25.2 C 64.1 25.1 64.1 25 64.2 25 C 64.2 25 65.8 25 65.8 25 C 65.9 25 65.9 25.1 65.9 25.2 C 65.91 25.15 65.9 31.2 65.9 31.2 C 65.9 31.2 65.91 38.86 65.9 38.9 C 65.9 39 65.9 39 65.8 39 C 65.8 39 64.2 39 64.2 39 C 64.1 39 64.1 39 64.1 38.9 C 64.1 38.9 64.1 37.3 64.1 37.3 C 63.4 38.5 62.3 39.2 60.8 39.2 C 58 39.2 56.6 36.9 56.6 33.9 Z M 64.2 34 C 64.2 31.3 63.1 29.8 61.3 29.7 C 59.4 29.7 58.4 31.4 58.4 33.8 C 58.4 36.2 59.4 38 61.3 37.9 C 63.1 37.9 64.1 36.6 64.2 34 Z M 66.8 33.9 C 66.8 30.7 68.7 28.5 71.7 28.5 C 74.7 28.5 76.4 30.5 76.5 33.9 C 76.5 34 76.4 34.1 76.3 34.1 C 76.3 34.1 68.7 34.1 68.7 34.1 C 68.7 36.8 69.9 38 71.8 38 C 73.3 38 74.2 37.1 74.5 35.7 C 74.5 35.6 74.6 35.5 74.7 35.5 C 74.7 35.5 76.1 35.5 76.1 35.5 C 76.2 35.5 76.3 35.6 76.3 35.6 C 76 37.7 74.4 39.2 71.8 39.2 C 68.5 39.2 66.8 37 66.8 33.9 Z M 74.5 32.8 C 74.4 31.1 73.5 29.7 71.7 29.7 C 70 29.7 69 30.9 68.7 32.8 C 68.7 32.8 74.5 32.8 74.5 32.8 Z M 77.2 33.9 C 77.2 30.9 78.8 28.5 81.5 28.5 C 82.9 28.5 84 29.1 84.7 30.3 C 84.7 30.3 84.7 25.2 84.7 25.2 C 84.7 25.1 84.7 25 84.8 25 C 84.8 25 86.4 25 86.4 25 C 86.5 25 86.5 25.1 86.5 25.2 C 86.54 25.15 86.5 31.2 86.5 31.2 C 86.5 31.2 86.54 38.86 86.5 38.9 C 86.5 39 86.5 39 86.4 39 C 86.4 39 84.8 39 84.8 39 C 84.8 39 84.7 39 84.7 38.9 C 84.7 38.9 84.7 37.3 84.7 37.3 C 84.1 38.5 83 39.2 81.5 39.2 C 78.7 39.2 77.2 36.9 77.2 33.9 Z M 84.8 34 C 84.8 31.3 83.8 29.8 82 29.7 C 80 29.7 79.1 31.4 79.1 33.8 C 79.1 36.2 80 38 81.9 37.9 C 83.7 37.9 84.8 36.6 84.8 34 Z M 91.9 38.9 C 91.91 38.85 92 34.3 92 34.3 L 92 30 C 92 30 90.49 30.03 90.5 30 C 90.4 30 90.4 30 90.4 29.9 C 90.4 29.9 90.4 28.9 90.4 28.9 C 90.4 28.8 90.4 28.7 90.5 28.7 C 90.49 28.7 92 28.7 92 28.7 C 92 28.7 91.97 27.77 92 27.8 C 92 25.5 93.4 24.7 94.7 24.7 C 95.2 24.7 95.7 24.8 96.1 24.9 C 96.2 24.9 96.2 25 96.2 25.1 C 96.2 25.1 96.2 26.1 96.2 26.1 C 96.2 26.2 96.1 26.2 96 26.2 C 95.8 26.1 95.4 26.1 95.1 26.1 C 94.3 26.1 93.8 26.6 93.8 27.9 C 93.76 27.91 93.8 28.7 93.8 28.7 C 93.8 28.7 96.04 28.7 96 28.7 C 96.1 28.7 96.2 28.8 96.2 28.9 C 96.2 28.9 96.2 29.9 96.2 29.9 C 96.2 30 96.1 30 96 30 C 96.04 30.03 93.8 30 93.8 30 L 93.8 34.3 C 93.8 34.3 93.81 38.85 93.8 38.9 C 93.8 39 93.8 39 93.7 39 C 93.7 39 92.1 39 92.1 39 C 92 39 91.9 39 91.9 38.9 Z M 95.9 33.9 C 95.9 30.6 97.7 28.5 100.8 28.5 C 103.9 28.5 105.7 30.6 105.7 33.8 C 105.7 37.1 103.9 39.2 100.8 39.2 C 97.7 39.2 95.9 37.1 95.9 33.9 Z M 103.8 33.9 C 103.8 31.3 102.8 29.7 100.8 29.7 C 98.8 29.8 97.8 31.3 97.8 33.9 C 97.8 36.5 98.8 38 100.8 38 C 102.8 38 103.8 36.5 103.8 33.9 Z M 106.6 38.9 C 106.59 38.85 106.7 33.7 106.7 33.7 C 106.7 33.7 106.59 28.85 106.6 28.9 C 106.6 28.8 106.7 28.7 106.7 28.7 C 106.7 28.7 108.3 28.7 108.3 28.7 C 108.4 28.7 108.4 28.8 108.4 28.9 C 108.4 28.9 108.4 30.6 108.4 30.6 C 109.1 29.3 110.4 28.6 111.9 28.6 C 112.1 28.6 112.3 28.6 112.5 28.7 C 112.6 28.7 112.6 28.8 112.6 28.8 C 112.6 28.8 112.6 29.9 112.6 29.9 C 112.6 30 112.6 30.1 112.5 30.1 C 112.3 30 112.1 30 111.9 30 C 110.1 30 108.6 31.1 108.4 33.4 C 108.4 33.4 108.4 38.9 108.4 38.9 C 108.4 39 108.4 39 108.3 39 C 108.3 39 106.7 39 106.7 39 C 106.7 39 106.6 39 106.6 38.9 Z M 116 38.9 C 116.04 38.85 116.1 33.7 116.1 33.7 C 116.1 33.7 116.04 28.85 116 28.9 C 116 28.8 116.1 28.7 116.2 28.7 C 116.2 28.7 117.7 28.7 117.7 28.7 C 117.8 28.7 117.9 28.8 117.9 28.9 C 117.9 28.9 117.8 30.6 117.8 30.6 C 118.5 29.3 119.9 28.6 121.3 28.6 C 121.5 28.6 121.8 28.6 122 28.7 C 122 28.7 122.1 28.8 122.1 28.8 C 122.1 28.8 122.1 29.9 122.1 29.9 C 122.1 30 122 30.1 121.9 30.1 C 121.8 30 121.6 30 121.3 30 C 119.6 30 118 31.1 117.9 33.4 C 117.9 33.4 117.9 38.9 117.9 38.9 C 117.9 39 117.8 39 117.7 39 C 117.7 39 116.2 39 116.2 39 C 116.1 39 116 39 116 38.9 Z M 121.7 33.9 C 121.7 30.7 123.5 28.5 126.5 28.5 C 129.5 28.5 131.2 30.5 131.3 33.9 C 131.3 34 131.2 34.1 131.1 34.1 C 131.1 34.1 123.5 34.1 123.5 34.1 C 123.6 36.8 124.7 38 126.6 38 C 128.1 38 129 37.1 129.3 35.7 C 129.4 35.6 129.4 35.5 129.5 35.5 C 129.5 35.5 131 35.5 131 35.5 C 131.1 35.5 131.1 35.6 131.1 35.6 C 130.8 37.7 129.2 39.2 126.6 39.2 C 123.4 39.2 121.7 37 121.7 33.9 Z M 129.3 32.8 C 129.3 31.1 128.3 29.7 126.5 29.7 C 124.8 29.7 123.8 30.9 123.6 32.8 C 123.6 32.8 129.3 32.8 129.3 32.8 Z M 131.8 35.6 C 131.8 35.5 131.8 35.5 131.9 35.5 C 131.9 35.5 133.4 35.5 133.4 35.5 C 133.5 35.5 133.5 35.5 133.5 35.6 C 133.6 37.3 134.6 38 136.4 38 C 137.9 38 138.9 37.4 138.9 36.2 C 138.9 33.4 132 35.6 132 31.5 C 132 29.5 133.6 28.5 136.1 28.5 C 138.5 28.5 140.2 29.5 140.4 31.6 C 140.4 31.7 140.3 31.8 140.2 31.8 C 140.2 31.8 138.8 31.8 138.8 31.8 C 138.7 31.8 138.7 31.7 138.6 31.6 C 138.5 30.3 137.5 29.7 136 29.7 C 134.6 29.7 133.7 30.2 133.7 31.4 C 133.7 34 140.7 31.7 140.7 36.1 C 140.7 38.1 138.8 39.2 136.3 39.2 C 133.6 39.2 131.8 38 131.8 35.6 Z M 141.5 35.1 C 141.53 35.14 141.5 33.1 141.5 33.1 C 141.5 33.1 141.5 28.85 141.5 28.9 C 141.5 28.8 141.6 28.7 141.6 28.7 C 141.6 28.7 143.2 28.7 143.2 28.7 C 143.3 28.7 143.4 28.8 143.4 28.9 C 143.36 28.85 143.3 33.1 143.3 33.1 C 143.3 33.1 143.32 35.07 143.3 35.1 C 143.3 37 144.2 37.9 145.5 37.9 C 146.8 37.9 147.9 36.8 148.3 34.8 C 148.33 34.75 148.3 33.1 148.3 33.1 C 148.3 33.1 148.3 28.85 148.3 28.9 C 148.3 28.8 148.4 28.7 148.4 28.7 C 148.4 28.7 150 28.7 150 28.7 C 150.1 28.7 150.2 28.8 150.2 28.9 C 150.18 28.85 150.1 33.4 150.1 33.4 C 150.1 33.4 150.16 38.85 150.2 38.9 C 150.2 39 150.1 39 150 39 C 150 39 148.5 39 148.5 39 C 148.4 39 148.4 39 148.4 38.9 C 148.4 38.9 148.4 37.2 148.4 37.2 C 147.8 38.3 146.6 39.2 145 39.2 C 142.9 39.2 141.5 37.9 141.5 35.1 Z M 151.5 38.9 C 151.52 38.85 151.6 31.9 151.6 31.9 C 151.6 31.9 151.52 25.15 151.5 25.2 C 151.5 25.1 151.6 25 151.7 25 C 151.7 25 153.2 25 153.2 25 C 153.3 25 153.4 25.1 153.4 25.2 C 153.35 25.15 153.3 31.9 153.3 31.9 C 153.3 31.9 153.35 38.85 153.4 38.9 C 153.4 39 153.3 39 153.2 39 C 153.2 39 151.7 39 151.7 39 C 151.6 39 151.5 39 151.5 38.9 Z M 155.6 36.2 C 155.57 36.18 155.6 30 155.6 30 C 155.6 30 154.4 30.04 154.4 30 C 154.3 30 154.3 30 154.3 29.9 C 154.3 29.9 154.3 28.9 154.3 28.9 C 154.3 28.8 154.3 28.7 154.4 28.7 C 154.4 28.7 155.6 28.7 155.6 28.7 C 155.6 28.7 155.56 26.27 155.6 26.3 C 155.6 26.2 155.6 26.1 155.7 26.1 C 155.7 26.1 157.3 26.1 157.3 26.1 C 157.4 26.1 157.4 26.2 157.4 26.3 C 157.41 26.27 157.4 28.7 157.4 28.7 C 157.4 28.7 159.79 28.7 159.8 28.7 C 159.9 28.7 159.9 28.8 159.9 28.9 C 159.9 28.9 159.9 29.9 159.9 29.9 C 159.9 30 159.9 30 159.8 30 C 159.79 30.04 157.4 30 157.4 30 C 157.4 30 157.39 36.14 157.4 36.1 C 157.4 37.4 157.8 37.8 158.7 37.8 C 159.1 37.8 159.5 37.8 159.8 37.7 C 159.9 37.6 159.9 37.7 159.9 37.8 C 159.9 37.8 159.9 38.8 159.9 38.8 C 159.9 38.9 159.9 38.9 159.8 38.9 C 159.4 39 158.9 39.2 158.4 39.2 C 156.9 39.2 155.6 38.4 155.6 36.2 Z M 160.3 35.6 C 160.3 35.5 160.4 35.5 160.4 35.5 C 160.4 35.5 161.9 35.5 161.9 35.5 C 162 35.5 162.1 35.5 162.1 35.6 C 162.1 37.3 163.1 38 165 38 C 166.5 38 167.5 37.4 167.5 36.2 C 167.5 33.4 160.5 35.6 160.5 31.5 C 160.5 29.5 162.2 28.5 164.6 28.5 C 167 28.5 168.8 29.5 168.9 31.6 C 168.9 31.7 168.8 31.8 168.8 31.8 C 168.8 31.8 167.3 31.8 167.3 31.8 C 167.2 31.8 167.2 31.7 167.2 31.6 C 167.1 30.3 166.1 29.7 164.6 29.7 C 163.2 29.7 162.3 30.2 162.3 31.4 C 162.3 34 169.2 31.7 169.2 36.1 C 169.2 38.1 167.4 39.2 164.9 39.2 C 162.1 39.2 160.4 38 160.3 35.6 Z M 169.5 40.8 C 169.5 40.76 170 39 170 39 C 170 39 170 37.13 170 37.1 C 170 37 170.1 37 170.1 37 C 170.1 37 171.7 37 171.7 37 C 171.8 37 171.8 37 171.8 37.1 C 171.8 37.1 171.8 38.9 171.8 38.9 C 171.8 38.9 171.8 39 171.8 39 C 171.8 39 170.6 40.8 170.6 40.8 C 170.5 40.9 170.5 40.9 170.4 40.9 C 170.4 40.9 169.6 40.9 169.6 40.9 C 169.5 40.9 169.5 40.9 169.5 40.8 Z M 175.6 38.9 C 175.62 38.85 175.7 34.3 175.7 34.3 C 175.7 34.3 175.64 28.85 175.6 28.9 C 175.6 28.8 175.7 28.7 175.8 28.7 C 175.8 28.7 177.3 28.7 177.3 28.7 C 177.4 28.7 177.4 28.8 177.4 28.9 C 177.4 28.9 177.4 30.5 177.4 30.5 C 178 29.4 179.2 28.5 180.8 28.5 C 182.9 28.5 184.3 29.9 184.3 32.6 C 184.26 32.56 184.3 34.6 184.3 34.6 C 184.3 34.6 184.3 38.85 184.3 38.9 C 184.3 39 184.2 39 184.2 39 C 184.2 39 182.6 39 182.6 39 C 182.5 39 182.4 39 182.4 38.9 C 182.44 38.85 182.5 34.6 182.5 34.6 C 182.5 34.6 182.47 32.63 182.5 32.6 C 182.5 30.7 181.6 29.9 180.3 29.9 C 179 29.9 177.9 30.9 177.5 33 C 177.47 32.95 177.5 34.6 177.5 34.6 C 177.5 34.6 177.5 38.85 177.5 38.9 C 177.5 39 177.4 39 177.4 39 C 177.4 39 175.8 39 175.8 39 C 175.7 39 175.6 39 175.6 38.9 Z M 185.1 33.9 C 185.1 30.6 186.9 28.5 190 28.5 C 193.2 28.5 194.9 30.6 194.9 33.8 C 194.9 37.1 193.2 39.2 190 39.2 C 186.9 39.2 185.1 37.1 185.1 33.9 Z M 193 33.9 C 193 31.3 192 29.7 190 29.7 C 188 29.8 187 31.3 187 33.9 C 187 36.5 188 38 190 38 C 192 38 193 36.5 193 33.9 Z M 196.4 36.2 C 196.37 36.18 196.4 30 196.4 30 C 196.4 30 195.2 30.04 195.2 30 C 195.1 30 195.1 30 195.1 29.9 C 195.1 29.9 195.1 28.9 195.1 28.9 C 195.1 28.8 195.1 28.7 195.2 28.7 C 195.2 28.7 196.4 28.7 196.4 28.7 C 196.4 28.7 196.36 26.27 196.4 26.3 C 196.4 26.2 196.4 26.1 196.5 26.1 C 196.5 26.1 198.1 26.1 198.1 26.1 C 198.2 26.1 198.2 26.2 198.2 26.3 C 198.21 26.27 198.2 28.7 198.2 28.7 C 198.2 28.7 200.59 28.7 200.6 28.7 C 200.7 28.7 200.7 28.8 200.7 28.9 C 200.7 28.9 200.7 29.9 200.7 29.9 C 200.7 30 200.7 30 200.6 30 C 200.59 30.04 198.2 30 198.2 30 C 198.2 30 198.19 36.14 198.2 36.1 C 198.2 37.4 198.6 37.8 199.5 37.8 C 199.9 37.8 200.3 37.8 200.6 37.7 C 200.7 37.6 200.7 37.7 200.7 37.8 C 200.7 37.8 200.7 38.8 200.7 38.8 C 200.7 38.9 200.7 38.9 200.6 38.9 C 200.2 39 199.7 39.2 199.2 39.2 C 197.7 39.2 196.4 38.4 196.4 36.2 Z M 205.7 38.9 C 205.66 38.85 205.7 34.3 205.7 34.3 L 205.7 30 C 205.7 30 204.24 30.03 204.2 30 C 204.2 30 204.1 30 204.1 29.9 C 204.1 29.9 204.1 28.9 204.1 28.9 C 204.1 28.8 204.2 28.7 204.2 28.7 C 204.24 28.7 205.7 28.7 205.7 28.7 C 205.7 28.7 205.72 27.77 205.7 27.8 C 205.7 25.5 207.1 24.7 208.4 24.7 C 208.9 24.7 209.5 24.8 209.8 24.9 C 209.9 24.9 210 25 210 25.1 C 210 25.1 210 26.1 210 26.1 C 210 26.2 209.9 26.2 209.8 26.2 C 209.5 26.1 209.2 26.1 208.8 26.1 C 208 26.1 207.5 26.6 207.5 27.9 C 207.51 27.91 207.5 28.7 207.5 28.7 C 207.5 28.7 209.79 28.7 209.8 28.7 C 209.9 28.7 209.9 28.8 209.9 28.9 C 209.9 28.9 209.9 29.9 209.9 29.9 C 209.9 30 209.9 30 209.8 30 C 209.79 30.03 207.5 30 207.5 30 L 207.5 34.3 C 207.5 34.3 207.56 38.85 207.6 38.9 C 207.6 39 207.5 39 207.4 39 C 207.4 39 205.8 39 205.8 39 C 205.7 39 205.7 39 205.7 38.9 Z M 209.6 33.9 C 209.6 30.6 211.4 28.5 214.5 28.5 C 217.7 28.5 219.4 30.6 219.4 33.8 C 219.4 37.1 217.7 39.2 214.5 39.2 C 211.4 39.2 209.6 37.1 209.6 33.9 Z M 217.5 33.9 C 217.5 31.3 216.5 29.7 214.5 29.7 C 212.5 29.8 211.5 31.3 211.5 33.9 C 211.5 36.5 212.5 38 214.5 38 C 216.6 38 217.5 36.5 217.5 33.9 Z M 220.3 38.9 C 220.34 38.85 220.4 33.7 220.4 33.7 C 220.4 33.7 220.34 28.85 220.3 28.9 C 220.3 28.8 220.4 28.7 220.5 28.7 C 220.5 28.7 222 28.7 222 28.7 C 222.1 28.7 222.2 28.8 222.2 28.9 C 222.2 28.9 222.1 30.6 222.1 30.6 C 222.8 29.3 224.2 28.6 225.6 28.6 C 225.8 28.6 226.1 28.6 226.3 28.7 C 226.3 28.7 226.4 28.8 226.4 28.8 C 226.4 28.8 226.4 29.9 226.4 29.9 C 226.4 30 226.3 30.1 226.2 30.1 C 226.1 30 225.9 30 225.6 30 C 223.9 30 222.3 31.1 222.2 33.4 C 222.2 33.4 222.2 38.9 222.2 38.9 C 222.2 39 222.1 39 222 39 C 222 39 220.5 39 220.5 39 C 220.4 39 220.3 39 220.3 38.9 Z " stroke="none" fill="#000"/>  </g>  <g id="Polygon40045">    <path d="M 26.7 11.5 C 26.7 11.3 26.8 11.3 26.9 11.3 C 26.9 11.3 29.6 11.3 29.6 11.3 C 29.7 11.3 29.7 11.3 29.7 11.4 C 29.8 12.6 30.6 13.2 31.7 13.2 C 33.1 13.2 34 12.2 34 10.2 C 34 8.2 33.3 7.2 31.7 7.2 C 30.7 7.2 29.9 7.7 29.7 8.7 C 29.7 8.8 29.6 8.8 29.5 8.8 C 29.5 8.8 27.2 8.8 27.2 8.8 C 27.1 8.8 27 8.7 27 8.6 C 27 8.6 27.6 1.2 27.6 1.2 C 27.6 1.1 27.6 1 27.7 1 C 27.7 1 36.1 1 36.1 1 C 36.3 1 36.3 1.1 36.3 1.2 C 36.3 1.2 36.3 3.1 36.3 3.1 C 36.3 3.2 36.3 3.3 36.1 3.3 C 36.14 3.26 30.2 3.3 30.2 3.3 C 30.2 3.3 29.96 5.92 30 5.9 C 30.7 5.3 31.7 5.1 32.7 5.1 C 35.2 5.1 37.2 7 37.2 9.9 C 37.2 13.3 35 15.3 31.7 15.3 C 28.7 15.3 27 13.7 26.7 11.5 Z M 37.8 14.8 C 37.8 14.8 37.8 13 37.8 13 C 37.8 7.5 44.7 8 44.7 5 C 44.8 3.7 44.1 2.9 42.8 2.9 C 41.5 2.9 40.7 3.9 40.7 5.6 C 40.7 5.7 40.6 5.7 40.5 5.7 C 40.5 5.7 38.1 5.7 38.1 5.7 C 38 5.7 37.9 5.7 37.9 5.6 C 37.9 2.5 39.5 0.8 42.8 0.7 C 45.9 0.7 47.5 2.3 47.5 4.9 C 47.5 10.1 40.6 9.8 40.6 12.5 C 40.64 12.5 40.6 12.7 40.6 12.7 C 40.6 12.7 47.36 12.74 47.4 12.7 C 47.5 12.7 47.5 12.8 47.5 12.9 C 47.5 12.9 47.5 14.8 47.5 14.8 C 47.5 14.9 47.5 15 47.4 15 C 47.4 15 38 15 38 15 C 37.9 15 37.8 14.9 37.8 14.8 Z M 48.3 4.5 C 48.3 2.1 49.8 0.8 52.1 0.8 C 54.3 0.8 55.8 2.1 55.8 4.5 C 55.8 6.8 54.3 8 52.1 8 C 49.8 8 48.3 6.8 48.3 4.5 Z M 50 14.8 C 50 14.8 60.2 1.1 60.2 1.1 C 60.2 1 60.3 1 60.4 1 C 60.4 1 62.5 1 62.5 1 C 62.6 1 62.7 1.1 62.6 1.2 C 62.6 1.2 52.4 14.9 52.4 14.9 C 52.3 15 52.3 15 52.2 15 C 52.2 15 50.1 15 50.1 15 C 49.9 15 49.9 14.9 50 14.8 Z M 53.3 4.5 C 53.3 3.1 52.8 2.5 52 2.5 C 51.3 2.5 50.8 3.1 50.8 4.5 C 50.8 5.7 51.2 6.3 52.1 6.3 C 52.9 6.3 53.3 5.7 53.3 4.5 Z M 56.7 11.5 C 56.7 9.2 58.2 8 60.5 8 C 62.8 8 64.3 9.2 64.3 11.5 C 64.3 13.9 62.8 15.2 60.5 15.2 C 58.2 15.2 56.7 13.9 56.7 11.5 Z M 61.7 11.5 C 61.7 10.3 61.3 9.7 60.5 9.7 C 59.7 9.7 59.3 10.3 59.3 11.5 C 59.3 12.9 59.7 13.5 60.5 13.5 C 61.3 13.5 61.7 12.9 61.7 11.5 Z M 70.3 13.3 C 70.3 13.3 70.3 14.9 70.3 14.9 C 70.3 15 70.3 15 70.2 15 C 70.2 15 68.6 15 68.6 15 C 68.5 15 68.5 15 68.5 14.9 C 68.46 14.85 68.5 7.3 68.5 7.3 C 68.5 7.3 68.46 1.15 68.5 1.2 C 68.5 1.1 68.5 1 68.6 1 C 68.6 1 70.2 1 70.2 1 C 70.3 1 70.3 1.1 70.3 1.2 C 70.3 1.2 70.3 6.4 70.3 6.4 C 71 5.2 72.1 4.5 73.5 4.5 C 76.3 4.5 77.8 6.8 77.8 9.8 C 77.8 12.8 76.2 15.2 73.5 15.2 C 72 15.2 70.9 14.5 70.3 13.3 Z M 75.9 9.9 C 75.9 7.5 75 5.8 73.1 5.8 C 71.3 5.8 70.2 7.1 70.2 9.7 C 70.2 12.4 71.2 13.9 73 13.9 C 75 13.9 75.9 12.3 75.9 9.9 Z M 78.6 9.9 C 78.6 6.7 80.4 4.5 83.4 4.5 C 86.4 4.5 88.1 6.5 88.2 9.9 C 88.2 10 88.1 10.1 88 10.1 C 88 10.1 80.4 10.1 80.4 10.1 C 80.5 12.8 81.6 14 83.5 14 C 85 14 85.9 13.1 86.2 11.7 C 86.3 11.6 86.3 11.5 86.4 11.5 C 86.4 11.5 87.9 11.5 87.9 11.5 C 88 11.5 88 11.6 88 11.6 C 87.7 13.7 86.1 15.2 83.5 15.2 C 80.3 15.2 78.6 13 78.6 9.9 Z M 86.2 8.8 C 86.2 7.1 85.2 5.7 83.4 5.7 C 81.7 5.7 80.7 6.9 80.5 8.8 C 80.5 8.8 86.2 8.8 86.2 8.8 Z M 89.2 14.9 C 89.19 14.85 89.3 7.9 89.3 7.9 C 89.3 7.9 89.19 1.15 89.2 1.2 C 89.2 1.1 89.3 1 89.3 1 C 89.3 1 90.9 1 90.9 1 C 91 1 91 1.1 91 1.2 C 91.02 1.15 91 7.9 91 7.9 C 91 7.9 91.02 14.85 91 14.9 C 91 15 91 15 90.9 15 C 90.9 15 89.3 15 89.3 15 C 89.3 15 89.2 15 89.2 14.9 Z M 92.5 3.4 C 92.5 3.4 92.5 1.8 92.5 1.8 C 92.5 1.7 92.5 1.6 92.6 1.6 C 92.6 1.6 94.2 1.6 94.2 1.6 C 94.3 1.6 94.3 1.7 94.3 1.8 C 94.3 1.8 94.3 3.4 94.3 3.4 C 94.3 3.5 94.3 3.6 94.2 3.6 C 94.2 3.6 92.6 3.6 92.6 3.6 C 92.5 3.6 92.5 3.5 92.5 3.4 Z M 92.5 14.9 C 92.45 14.85 92.5 9.7 92.5 9.7 C 92.5 9.7 92.45 4.85 92.5 4.9 C 92.5 4.8 92.5 4.7 92.6 4.7 C 92.6 4.7 94.2 4.7 94.2 4.7 C 94.3 4.7 94.3 4.8 94.3 4.9 C 94.31 4.85 94.3 9.7 94.3 9.7 C 94.3 9.7 94.31 14.85 94.3 14.9 C 94.3 15 94.3 15 94.2 15 C 94.2 15 92.6 15 92.6 15 C 92.5 15 92.5 15 92.5 14.9 Z M 95.3 9.9 C 95.3 6.7 97.2 4.5 100.2 4.5 C 103.2 4.5 104.9 6.5 104.9 9.9 C 104.9 10 104.9 10.1 104.8 10.1 C 104.8 10.1 97.2 10.1 97.2 10.1 C 97.2 12.8 98.4 14 100.3 14 C 101.8 14 102.7 13.1 103 11.7 C 103 11.6 103.1 11.5 103.2 11.5 C 103.2 11.5 104.6 11.5 104.6 11.5 C 104.7 11.5 104.8 11.6 104.8 11.6 C 104.5 13.7 102.9 15.2 100.3 15.2 C 97 15.2 95.3 13 95.3 9.9 Z M 103 8.8 C 102.9 7.1 102 5.7 100.2 5.7 C 98.5 5.7 97.5 6.9 97.2 8.8 C 97.2 8.8 103 8.8 103 8.8 Z M 104.8 4.7 C 104.8 4.7 106.5 4.7 106.5 4.7 C 106.5 4.7 106.6 4.7 106.6 4.8 C 106.61 4.82 108.8 11.4 108.8 11.4 L 109.5 13.4 L 110.2 11.4 C 110.2 11.4 112.51 4.82 112.5 4.8 C 112.5 4.7 112.6 4.7 112.7 4.7 C 112.7 4.7 114.2 4.7 114.2 4.7 C 114.3 4.7 114.3 4.8 114.3 4.9 C 114.3 4.9 110.6 14.9 110.6 14.9 C 110.6 15 110.5 15 110.4 15 C 110.4 15 108.5 15 108.5 15 C 108.4 15 108.4 15 108.3 14.9 C 108.3 14.9 104.6 4.9 104.6 4.9 C 104.6 4.8 104.7 4.7 104.8 4.7 Z M 114 9.9 C 114 6.7 115.8 4.5 118.8 4.5 C 121.8 4.5 123.5 6.5 123.6 9.9 C 123.6 10 123.5 10.1 123.4 10.1 C 123.4 10.1 115.8 10.1 115.8 10.1 C 115.9 12.8 117 14 118.9 14 C 120.4 14 121.4 13.1 121.7 11.7 C 121.7 11.6 121.7 11.5 121.8 11.5 C 121.8 11.5 123.3 11.5 123.3 11.5 C 123.4 11.5 123.4 11.6 123.4 11.6 C 123.1 13.7 121.6 15.2 118.9 15.2 C 115.7 15.2 114 13 114 9.9 Z M 121.6 8.8 C 121.6 7.1 120.6 5.7 118.8 5.7 C 117.1 5.7 116.1 6.9 115.9 8.8 C 115.9 8.8 121.6 8.8 121.6 8.8 Z M 127.4 18.3 C 127.36 18.25 127.4 10.5 127.4 10.5 C 127.4 10.5 127.36 4.85 127.4 4.9 C 127.4 4.8 127.4 4.7 127.5 4.7 C 127.5 4.7 129.1 4.7 129.1 4.7 C 129.2 4.7 129.2 4.8 129.2 4.9 C 129.2 4.9 129.2 6.4 129.2 6.4 C 129.8 5.2 131 4.5 132.4 4.5 C 135.2 4.5 136.7 6.8 136.7 9.8 C 136.7 12.8 135.1 15.2 132.4 15.2 C 131 15.2 129.9 14.6 129.2 13.4 C 129.2 13.4 129.2 18.3 129.2 18.3 C 129.2 18.3 129.2 18.4 129.1 18.4 C 129.1 18.4 127.5 18.4 127.5 18.4 C 127.4 18.4 127.4 18.3 127.4 18.3 Z M 134.9 10 C 134.9 7.5 133.9 5.8 132 5.8 C 130.2 5.8 129.1 7.1 129.1 9.8 C 129.1 12.4 130.1 13.9 131.9 13.9 C 133.9 13.9 134.9 12.3 134.9 10 Z M 137.5 9.9 C 137.5 6.7 139.3 4.5 142.3 4.5 C 145.3 4.5 147 6.5 147.1 9.9 C 147.1 10 147 10.1 146.9 10.1 C 146.9 10.1 139.3 10.1 139.3 10.1 C 139.4 12.8 140.5 14 142.4 14 C 143.9 14 144.9 13.1 145.2 11.7 C 145.2 11.6 145.2 11.5 145.3 11.5 C 145.3 11.5 146.8 11.5 146.8 11.5 C 146.9 11.5 146.9 11.6 146.9 11.6 C 146.6 13.7 145.1 15.2 142.4 15.2 C 139.2 15.2 137.5 13 137.5 9.9 Z M 145.1 8.8 C 145.1 7.1 144.1 5.7 142.3 5.7 C 140.6 5.7 139.6 6.9 139.4 8.8 C 139.4 8.8 145.1 8.8 145.1 8.8 Z M 147.8 9.9 C 147.8 6.6 149.6 4.5 152.7 4.5 C 155.9 4.5 157.6 6.6 157.6 9.8 C 157.6 13.1 155.9 15.2 152.7 15.2 C 149.6 15.2 147.8 13.1 147.8 9.9 Z M 155.7 9.9 C 155.7 7.3 154.7 5.7 152.7 5.7 C 150.7 5.8 149.7 7.3 149.7 9.9 C 149.7 12.5 150.7 14 152.7 14 C 154.8 14 155.7 12.5 155.7 9.9 Z M 158.5 18.3 C 158.54 18.25 158.6 10.5 158.6 10.5 C 158.6 10.5 158.54 4.85 158.5 4.9 C 158.5 4.8 158.6 4.7 158.7 4.7 C 158.7 4.7 160.2 4.7 160.2 4.7 C 160.3 4.7 160.4 4.8 160.4 4.9 C 160.4 4.9 160.3 6.4 160.3 6.4 C 161 5.2 162.1 4.5 163.6 4.5 C 166.4 4.5 167.9 6.8 167.9 9.8 C 167.9 12.8 166.3 15.2 163.6 15.2 C 162.1 15.2 161 14.6 160.4 13.4 C 160.4 13.4 160.4 18.3 160.4 18.3 C 160.4 18.3 160.4 18.4 160.3 18.4 C 160.3 18.4 158.7 18.4 158.7 18.4 C 158.6 18.4 158.5 18.3 158.5 18.3 Z M 166 10 C 166 7.5 165.1 5.8 163.2 5.8 C 161.4 5.8 160.3 7.1 160.3 9.8 C 160.3 12.4 161.3 13.9 163.1 13.9 C 165.1 13.9 166 12.3 166 10 Z M 168.9 14.9 C 168.92 14.85 169 7.9 169 7.9 C 169 7.9 168.92 1.15 168.9 1.2 C 168.9 1.1 169 1 169.1 1 C 169.1 1 170.6 1 170.6 1 C 170.7 1 170.8 1.1 170.8 1.2 C 170.75 1.15 170.7 7.9 170.7 7.9 C 170.7 7.9 170.75 14.85 170.8 14.9 C 170.8 15 170.7 15 170.6 15 C 170.6 15 169.1 15 169.1 15 C 169 15 168.9 15 168.9 14.9 Z M 171.8 9.9 C 171.8 6.7 173.6 4.5 176.6 4.5 C 179.6 4.5 181.3 6.5 181.4 9.9 C 181.4 10 181.3 10.1 181.2 10.1 C 181.2 10.1 173.6 10.1 173.6 10.1 C 173.7 12.8 174.8 14 176.7 14 C 178.2 14 179.2 13.1 179.5 11.7 C 179.5 11.6 179.5 11.5 179.6 11.5 C 179.6 11.5 181.1 11.5 181.1 11.5 C 181.2 11.5 181.2 11.6 181.2 11.6 C 180.9 13.7 179.4 15.2 176.7 15.2 C 173.5 15.2 171.8 13 171.8 9.9 Z M 179.4 8.8 C 179.4 7.1 178.4 5.7 176.6 5.7 C 174.9 5.7 173.9 6.9 173.7 8.8 C 173.7 8.8 179.4 8.8 179.4 8.8 Z M 184.7 9.9 C 184.7 6.9 186.3 4.5 189 4.5 C 190.5 4.5 191.6 5.2 192.2 6.4 C 192.2 6.4 192.2 4.9 192.2 4.9 C 192.2 4.8 192.3 4.7 192.3 4.7 C 192.3 4.7 193.9 4.7 193.9 4.7 C 194 4.7 194 4.8 194 4.9 C 194.04 4.85 194 9.7 194 9.7 C 194 9.7 194.04 14.85 194 14.9 C 194 15 194 15 193.9 15 C 193.9 15 192.4 15 192.4 15 C 192.3 15 192.2 15 192.2 14.9 C 192.2 14.9 192.2 13.3 192.2 13.3 C 191.6 14.5 190.5 15.2 189 15.2 C 186.2 15.2 184.7 12.9 184.7 9.9 Z M 192.3 9.9 C 192.3 7.3 191.3 5.8 189.5 5.8 C 187.5 5.8 186.6 7.4 186.6 9.7 C 186.6 12.2 187.5 13.9 189.4 13.9 C 191.2 13.9 192.3 12.6 192.3 9.9 Z M 195.3 14.9 C 195.28 14.85 195.3 9.7 195.3 9.7 C 195.3 9.7 195.28 4.85 195.3 4.9 C 195.3 4.8 195.3 4.7 195.4 4.7 C 195.4 4.7 197 4.7 197 4.7 C 197.1 4.7 197.1 4.8 197.1 4.9 C 197.1 4.9 197.1 6.6 197.1 6.6 C 197.8 5.3 199.1 4.6 200.6 4.6 C 200.8 4.6 201 4.6 201.2 4.7 C 201.3 4.7 201.3 4.8 201.3 4.8 C 201.3 4.8 201.3 5.9 201.3 5.9 C 201.3 6 201.3 6.1 201.2 6.1 C 201 6 200.8 6 200.6 6 C 198.8 6 197.3 7.1 197.1 9.4 C 197.1 9.4 197.1 14.9 197.1 14.9 C 197.1 15 197.1 15 197 15 C 197 15 195.4 15 195.4 15 C 195.3 15 195.3 15 195.3 14.9 Z M 200.9 9.9 C 200.9 6.7 202.7 4.5 205.7 4.5 C 208.7 4.5 210.5 6.5 210.5 9.9 C 210.5 10 210.5 10.1 210.4 10.1 C 210.4 10.1 202.8 10.1 202.8 10.1 C 202.8 12.8 203.9 14 205.9 14 C 207.4 14 208.3 13.1 208.6 11.7 C 208.6 11.6 208.7 11.5 208.7 11.5 C 208.7 11.5 210.2 11.5 210.2 11.5 C 210.3 11.5 210.4 11.6 210.4 11.6 C 210.1 13.7 208.5 15.2 205.8 15.2 C 202.6 15.2 200.9 13 200.9 9.9 Z M 208.6 8.8 C 208.5 7.1 207.6 5.7 205.7 5.7 C 204 5.7 203 6.9 202.8 8.8 C 202.8 8.8 208.6 8.8 208.6 8.8 Z " stroke="none" fill="#000"/>  </g></svg>